<svg xmlns="http://www.w3.org/2000/svg" width="18" height="18" viewBox="0 0 18 18" >
  <symbol id="save" >
		<path fill-rule="evenodd" clip-rule="evenodd" d="M15.5631 15.3297C15.8736 15.3297 16.1256 15.5817 16.1256 15.8922C16.1256 16.2027 15.8736 16.4547 15.5631 16.4547H10.1233C9.81283 16.4547 9.56083 16.2027 9.56083 15.8922C9.56083 15.5817 9.81283 15.3297 10.1233 15.3297H15.5631ZM12.0874 2.74023C12.1249 2.76948 13.3797 3.74448 13.3797 3.74448C13.8357 4.01598 14.1919 4.50123 14.3269 5.07573C14.4612 5.64423 14.3637 6.23073 14.0509 6.72648C14.0488 6.72979 14.0468 6.73305 14.0395 6.74277L14.0339 6.75028C13.9831 6.81719 13.7624 7.09623 12.6486 8.49167C12.6383 8.50996 12.6266 8.52709 12.6138 8.54373C12.595 8.56827 12.5746 8.59082 12.5527 8.61135C12.4768 8.707 12.3965 8.80751 12.3122 8.91318L12.1412 9.12728C11.7885 9.56901 11.3701 10.0928 10.8738 10.7141L10.619 11.0329C9.66078 12.2323 8.43355 13.7679 6.86143 15.7347C6.51718 16.1637 6.00118 16.4135 5.44693 16.4202L2.71768 16.4547H2.71018C2.44993 16.4547 2.22343 16.2762 2.16268 16.022L1.54843 13.4187C1.42168 12.8795 1.54768 12.323 1.89343 11.891L8.95843 3.05448C8.96143 3.05148 8.96368 3.04773 8.96668 3.04473C9.74143 2.11848 11.1424 1.98198 12.0874 2.74023ZM8.17072 5.84025L2.77168 12.5937C2.64343 12.7542 2.59618 12.9612 2.64343 13.16L3.15418 15.3237L5.43343 15.2952C5.65018 15.293 5.85043 15.1962 5.98318 15.0312C6.66679 14.1759 7.52597 13.1009 8.40932 11.9955L8.72185 11.6044L9.0349 11.2127C9.86334 10.1759 10.6818 9.15155 11.3666 8.29415L8.17072 5.84025ZM9.83293 3.76248L8.87347 4.96125L12.0691 7.41445C12.6841 6.64402 13.0888 6.1366 13.1262 6.08823C13.2492 5.88873 13.2972 5.60673 13.2327 5.33523C13.1667 5.05698 12.9934 4.82073 12.7437 4.66998C12.6904 4.63323 11.4267 3.65223 11.3877 3.62148C10.9122 3.24048 10.2184 3.30648 9.83293 3.76248Z" />
		</symbol>
		<symbol id="brand1">
			<g clip-path="url(#clip0_0_508)">
			<path fill-rule="evenodd" clip-rule="evenodd" d="M35.4798 20.8566H33.8034V0.18239H35.5776V20.8566H35.4797H35.4798ZM75.1781 9.30876L83.5432 0.214427L83.6009 0.267859V0.18239H85.9344L77.6495 9.14805L85.7854 20.8566H83.676L76.4677 10.4746L75.1781 11.9365V20.8566H73.404V0.182355H75.1781V9.30873L75.1781 9.30876ZM13.3471 2.33783C12.4538 2.01992 11.4799 1.85067 10.4488 1.85067H10.3722C8.04126 1.87185 5.9226 2.86213 4.37851 4.43138C2.80716 6.02831 1.83029 8.22524 1.83029 10.6103C1.83029 13.0161 2.80162 15.207 4.36472 16.7959C5.92655 18.383 8.08071 19.37 10.4487 19.37C11.4866 19.37 12.469 19.2103 13.3716 18.8984C14.2724 18.587 15.0962 18.1233 15.8195 17.5151L15.8898 17.4559L17.1428 18.7762L17.0619 18.8433C16.1562 19.5937 15.1135 20.1938 13.9728 20.6014C12.8775 20.9926 11.6913 21.2068 10.4487 21.2068C7.56723 21.2068 4.96128 20.011 3.07298 18.0933C1.17397 16.1645 -3.05176e-05 13.505 -3.05176e-05 10.5966C-3.05176e-05 7.71064 1.17922 5.04849 3.08558 3.11506C4.97227 1.2012 7.57308 0 10.4487 0C11.6806 0 12.8575 0.223982 13.945 0.624102C15.0959 1.04758 16.1481 1.67007 17.0619 2.43416L17.1421 2.50083L15.8895 3.82095L15.8192 3.76154C15.0936 3.14531 14.2611 2.66313 13.347 2.33783H13.3471ZM89.4678 20.8705H87.9032V0.196301H89.5657V20.8705H89.4678ZM51.604 0.445682C51.7882 0.261289 52.0408 0.140411 52.326 0.140411C52.6095 0.140411 52.861 0.263081 53.0444 0.446981C53.2404 0.643704 53.3599 0.912757 53.3599 1.17784C53.3599 1.47078 53.2477 1.73028 53.0621 1.91646C52.8766 2.10265 52.6181 2.21516 52.326 2.21516C52.0341 2.21516 51.7755 2.10261 51.5899 1.91646C51.4044 1.73028 51.2921 1.47078 51.2921 1.17784C51.2921 0.906996 51.4101 0.640226 51.604 0.445682ZM27.2222 8.18495C28.0686 8.60386 28.8155 9.19919 29.4175 9.93501V7.89152H31.1917V20.8846H29.4175V18.7314C28.8114 19.4806 28.0578 20.095 27.2037 20.529C26.2953 20.9906 25.2729 21.2488 24.1934 21.2488C22.2948 21.2488 20.5728 20.4736 19.326 19.2226C18.0793 17.9716 17.3067 16.2436 17.3067 14.3386C17.3067 12.4588 18.082 10.7424 19.3326 9.49765C20.5794 8.25742 22.2984 7.48479 24.1934 7.48479C25.28 7.48479 26.3091 7.73295 27.2222 8.18491V8.18495ZM20.5314 17.9981C21.4648 18.9349 22.7586 19.5105 24.1934 19.5105C25.6051 19.5105 26.9034 18.9272 27.8451 17.9822C28.7778 17.0463 29.3615 15.7552 29.3615 14.3248C29.3615 12.9151 28.7717 11.6184 27.8312 10.6748C26.8908 9.73105 25.5984 9.1393 24.1934 9.1393C22.7624 9.1393 21.4769 9.72367 20.5464 10.6573C19.6047 11.6023 19.0252 12.9062 19.0252 14.3248C19.0252 15.7678 19.5997 17.0635 20.5313 17.9981H20.5314ZM38.8517 7.94945L43.2613 17.7333L47.7664 7.89155H49.6715C47.5289 12.536 45.3976 17.1862 43.2607 21.8331L36.85 7.89155H38.8256L38.8517 7.94948L38.8517 7.94945ZM53.0802 20.8846H51.4038V7.89155H53.1781V20.8846H53.0802H53.0802ZM58.8295 7.93005C59.4908 7.63153 60.234 7.48486 60.9721 7.48486C62.4024 7.48486 63.6984 8.06737 64.6363 9.00827C65.5743 9.94916 66.1548 11.2496 66.1548 12.6848V20.8846H64.4362V12.6848C64.4362 11.7061 64.0496 10.8166 63.4215 10.1737C62.7973 9.53506 61.9334 9.13902 60.9721 9.13902C59.9518 9.13902 59.0525 9.49653 58.4173 10.1339C57.8069 10.7463 57.4381 11.62 57.4381 12.6848V20.8846H55.6639V7.89155H57.4381V8.94609C57.8208 8.50719 58.2993 8.16935 58.8295 7.93005ZM107.924 0.459522C108.109 0.27513 108.361 0.154251 108.646 0.154251C108.93 0.154251 109.181 0.276922 109.365 0.460822C109.561 0.657544 109.68 0.926598 109.68 1.19168C109.68 1.48462 109.568 1.74412 109.383 1.9303C109.197 2.11649 108.938 2.22911 108.646 2.22911C108.354 2.22911 108.096 2.11649 107.91 1.9303C107.725 1.74412 107.613 1.48462 107.613 1.19168C107.613 0.920836 107.731 0.654067 107.924 0.459522ZM115.276 7.93005C115.938 7.63153 116.681 7.48486 117.419 7.48486C118.849 7.48486 120.145 8.06737 121.083 9.00827C122.021 9.94916 122.601 11.2496 122.601 12.6848V20.8846H120.883V12.6848C120.883 11.7061 120.496 10.8166 119.868 10.1737C119.244 9.53527 118.38 9.13902 117.419 9.13902C116.398 9.13902 115.499 9.49653 114.864 10.1339C114.254 10.7463 113.885 11.62 113.885 12.6848V20.8846H112.166V7.89155H113.885V8.94609C114.267 8.50719 114.746 8.16935 115.276 7.93005H115.276ZM93.8618 9.48311C95.0945 8.24618 96.8025 7.48486 98.7009 7.48486H98.9369L98.919 7.50278C100.705 7.56299 102.329 8.317 103.519 9.51058C104.751 10.7465 105.518 12.4546 105.518 14.3525V14.5629H93.5354C93.5877 15.9303 94.1701 17.1569 95.0794 18.0477C96.0134 18.9624 97.2935 19.5245 98.7008 19.5245C99.7018 19.5245 100.642 19.2431 101.433 18.7477C102.235 18.246 102.886 17.5231 103.292 16.652L103.334 16.5627L104.851 17.2919L104.809 17.3799C104.272 18.5221 103.399 19.4837 102.323 20.1546C101.269 20.8126 100.019 21.1927 98.7008 21.1927C96.8025 21.1927 95.0945 20.4314 93.8618 19.1944C92.6286 17.9573 91.8704 16.2435 91.8704 14.3387C91.8704 12.4339 92.6286 10.7203 93.8618 9.48311H93.8618ZM93.7481 12.7687H103.584C103.273 11.7412 102.643 10.8503 101.811 10.211C100.948 9.54788 99.8683 9.15318 98.7008 9.15318C97.5356 9.15318 96.4518 9.53707 95.5791 10.1913C94.7295 10.8284 94.0785 11.7228 93.7481 12.7688L93.7481 12.7687ZM109.345 20.8846H107.724V7.89155H109.443V20.8846H109.345Z" fill="black"/>
			</g>
			<defs>
			<clipPath id="clip0_0_508">
			<rect width="122.601" height="21.8331" fill="white"/>
			</clipPath>
			</defs>
		</symbol>
		<symbol id="brand2">
				<g clip-path="url(#clip0_0_514)">
				<path d="M10.714 2.04653H6.27697V13.5877H4.43616V2.04653H0V0.34082H10.714V2.04653Z" fill="#243057"/>
				<path d="M24.3315 12.0145C27.2066 12.0145 29.3321 9.85404 29.3321 6.96205C29.3321 4.05156 27.2066 1.91592 24.3315 1.91592C21.4802 1.91592 19.3534 4.05143 19.3534 6.96205C19.3534 9.85404 21.4802 12.0145 24.3315 12.0145ZM24.3315 0.166809C28.5631 0.166809 31.2266 3.27094 31.2266 6.96192C31.2266 10.5385 28.6353 13.7631 24.2971 13.7631C20.1036 13.7631 17.4615 10.5568 17.4615 6.96192C17.4615 3.29187 20.1798 0.166809 24.3315 0.166809Z" fill="#243057"/>
				<path d="M51.8189 13.5892H49.9839V3.27108H49.9462L45.9956 8.39797H45.6973L41.7521 3.27108H41.7155V13.5892H39.872V0.34082H41.6048L45.8472 5.77924L50.1103 0.34082H51.8189V13.5892Z" fill="#243057"/>
				<path d="M74.1819 13.5892H72.3438V3.27108H72.3044L68.3565 8.39797H68.0559L64.107 3.27108H64.0753V13.5892H62.2321V0.34082H63.9596L68.2056 5.77924L72.4792 0.34082H74.1819V13.5892Z" fill="#243057"/>
				<path d="M91.295 0.34082H93.5176L88.766 6.58889V13.5892H86.9251V6.57386L82.1702 0.34082H84.3857L87.8218 4.90141L91.295 0.34082Z" fill="#243057"/>
				<path d="M143.335 13.5892H141.498V7.82165H134.312V13.5892H132.477V0.34082H134.312V6.10901H141.498V0.34082H143.335V13.5892Z" fill="#243057"/>
				<path d="M150.958 13.5892H152.807V0.342346H150.958V13.5892Z" fill="#243057"/>
				<path d="M162.2 11.8757H167.981V13.5892H160.357V0.34082H162.2V11.8757Z" fill="#243057"/>
				<path d="M180.115 2.04653H175.115V5.72249H180.115V7.42537H175.115V13.5877H173.277V0.34082H180.115V2.04653Z" fill="#243057"/>
				<path d="M186.56 13.5891H188.4V0.342285H186.56V13.5891Z" fill="#243057"/>
				<path d="M205.93 12.6707C204.222 13.4491 202.832 13.7631 201.05 13.7631C197.122 13.7631 194.228 10.9235 194.228 7.03691C194.228 3.13611 197.199 0.166809 201.096 0.166809C202.608 0.166809 203.659 0.416059 205.671 1.29389V3.21251C204.164 2.36229 202.608 1.9158 201.067 1.9158C198.285 1.9158 196.124 4.10704 196.124 6.98118C196.124 9.93558 198.264 12.0143 201.309 12.0143C202.308 12.0143 203.207 11.7777 204.09 11.4886V8.77254H201.626V7.06208H205.93V12.6707H205.93Z" fill="#243057"/>
				<path d="M220.218 2.04653H214.784V6.04943H220.028V7.75629H214.784V11.8757H220.386V13.5877H212.939V0.34082H220.218V2.04653Z" fill="#243057"/>
				<path d="M228.518 6.12596H229.699C231.672 6.12596 232.24 5.07695 232.223 3.97067C232.201 2.73226 231.484 1.97154 229.699 1.97154H228.518V6.12596ZM229.906 0.34082C232.501 0.34082 234.118 1.76017 234.118 4.05427C234.118 5.58881 233.351 6.73258 231.97 7.29324C233.14 8.09466 233.856 9.3133 234.831 10.9619C235.382 11.8757 235.696 12.3212 236.582 13.5893H234.381L232.69 10.8649C230.996 8.15039 230.23 7.83732 229.294 7.83732H228.519V13.5895H226.678V0.340949H229.906L229.906 0.34082Z" fill="#243057"/>
				<path d="M101.989 13.9165H122.363V0H101.989V13.9165Z" fill="#FEFEFE"/>
				<path fill-rule="evenodd" clip-rule="evenodd" d="M112.184 10.2771H122.04V3.63336H112.184V10.2771Z" fill="#D21F34"/>
				<path fill-rule="evenodd" clip-rule="evenodd" d="M102.329 10.2767H112.184V3.64746H102.329V10.2767Z" fill="#FEFEFE"/>
				<path fill-rule="evenodd" clip-rule="evenodd" d="M102.331 3.64526H122.04V0.343506H102.331V3.64526Z" fill="#243057"/>
				<path fill-rule="evenodd" clip-rule="evenodd" d="M102.331 13.5674H122.04V10.2576H102.331V13.5674Z" fill="#212A4F"/>
				</g>
				<defs>
				<clipPath id="clip0_0_514">
					<rect width="236.581" height="13.9166" fill="white"/>
				</clipPath>
				</defs>
			</symbol>
			<symbol id="arrow">
			<path d="M7.3181 5L0 5L3.65905 0L7.3181 5Z" fill="#B7B7B7"/>

		</symbol>	
		<symbol id="brand3">
			<path fill-rule="evenodd" clip-rule="evenodd" d="M2.62717 10.736C2.88075 10.5604 2.8763 10.3908 3.00977 9.85184C3.36122 8.40453 4.67805 3.19057 4.93163 2.17927C4.95387 2.11871 5.00281 1.87043 4.98501 1.76142C4.86489 1.48892 4.51789 1.3678 4.23317 1.31936C4.08191 1.28908 3.54362 1.21035 3.49023 1.1498C3.39681 1.05291 3.4235 0.96207 3.43685 0.840956C3.48133 0.616896 3.63259 0.61084 3.80164 0.61084C4.05077 0.61084 8.42834 0.61084 8.5974 0.61084C8.89991 0.616896 8.88656 1.1498 8.68192 1.2043C7.82776 1.28302 7.03588 1.31936 6.69778 2.11871C6.40861 3.25113 4.70474 9.62778 4.54903 10.3181C4.52234 10.4574 4.50899 10.6572 4.60687 10.7663L4.65135 10.8208C4.78482 10.9843 4.96277 11.0751 5.15851 11.1417C5.35871 11.1962 5.5411 11.2386 5.75464 11.2628C5.96374 11.2992 6.02602 11.3113 6.07051 11.4203C6.1061 11.5595 6.1061 11.7352 6.02602 11.8078C5.94149 11.8805 5.79913 11.8926 5.79913 11.8926H1.06566C0.96334 11.8684 0.905507 11.7715 0.89216 11.6564C0.887712 11.5232 0.887712 11.4082 0.967789 11.3294C1.09235 11.2023 1.41711 11.178 1.41711 11.178C1.56392 11.178 1.89758 11.1175 2.27572 10.9419C2.34245 10.9116 2.38249 10.8934 2.44033 10.8631L2.62717 10.736Z" fill="#2B2A29"/>
			<path fill-rule="evenodd" clip-rule="evenodd" d="M40.139 0.616882C40.139 0.616882 35.9972 0.616882 36.0995 0.616882C35.7748 0.653217 35.7659 0.810665 35.7614 0.889389C35.7436 1.065 35.8059 1.19217 35.9438 1.24062C36.2819 1.30723 36.5933 1.25273 36.9003 1.37384C36.9759 1.42229 37.0605 1.4889 36.9982 1.65846C36.838 1.87647 30.9301 9.57932 30.761 9.68226C30.6765 9.54904 29.6177 2.62132 29.5243 2.07631C29.4887 1.87647 29.4753 1.56763 29.8001 1.50707C30.2138 1.37384 30.4185 1.38596 30.7833 1.31329C30.9256 1.28301 30.9301 1.14978 30.9345 1.02261C30.9301 0.822776 30.8722 0.677439 30.6987 0.653217C30.7966 0.653217 26.7794 0.653217 26.8506 0.653217C26.815 0.671384 26.6415 0.635049 26.597 0.840943C26.5747 0.931779 26.5659 1.02261 26.6014 1.10134C26.6637 1.24062 26.7794 1.29512 26.9529 1.31934C26.9929 1.34962 27.6914 1.44046 27.8649 1.77352C27.985 2.04603 28.3053 4.29875 28.3365 4.60153C28.2297 4.77715 24.9599 9.05247 24.4883 9.63987C24.4571 9.68832 24.3771 9.71254 24.3682 9.61565C24.2436 9.10092 24.1769 8.48323 24.0657 7.90794C24.0568 7.805 23.1892 2.32459 23.1448 2.02786C23.1136 1.82197 23.2159 1.65241 23.3361 1.52524C23.6653 1.37384 24.0212 1.31934 24.3771 1.33751C24.466 1.28906 24.6128 1.30723 24.7018 1.18612C24.7196 1.10739 24.7597 1.00445 24.7241 0.907556C24.684 0.762219 24.5995 0.695606 24.5061 0.659272C24.6484 0.659272 20.9693 0.653217 20.2086 0.659272C19.9906 0.659272 19.8927 0.628994 19.7593 0.731941C19.7148 0.804609 19.6836 0.9015 19.697 0.974169C19.7148 1.08923 19.7682 1.21034 19.8571 1.25879C20.1374 1.3799 20.6312 1.28301 21.214 1.6403C21.4409 1.80985 21.4631 2.25798 21.521 2.60315C21.601 3.13605 21.6989 3.57812 21.7568 4.11102C21.8858 4.81348 22.4774 8.5014 22.5531 8.94952C22.602 9.2402 22.909 11.178 22.909 11.178C22.9668 11.5232 23.1448 11.7836 23.3761 11.8744C23.5629 11.8986 23.7098 11.935 23.8788 11.7412L28.5055 5.70367C28.5411 5.72789 28.5366 5.80056 28.55 5.87928C28.7013 6.79975 29.3018 11.0569 29.4931 11.6322C29.5154 11.7291 29.6533 12.1469 30.0982 11.8926C30.1426 11.8744 30.2138 11.8139 30.2806 11.7291C30.3962 11.5716 37.4697 2.41542 37.6922 2.21559C37.6966 2.20953 38.2438 1.53735 38.8533 1.41018C39.4628 1.24062 39.6852 1.29512 40.1701 1.18006C40.2502 1.13767 40.2813 1.03473 40.2725 0.919667C40.2725 0.786442 40.2547 0.659272 40.139 0.616882Z" fill="#2B2A29"/>
			<path fill-rule="evenodd" clip-rule="evenodd" d="M17.9132 5.55838C17.9933 5.81272 17.9888 6.17606 17.9443 6.46068C17.9043 6.66658 17.8776 6.7998 17.842 6.97542C17.7664 7.2782 17.1614 9.53092 16.9701 10.4151C16.9345 10.5241 17.0145 10.6028 17.0902 10.5846C17.3215 10.5119 17.2548 10.5241 17.3971 10.4332C17.4149 10.4151 18.1178 9.88821 18.3981 9.57936C18.5716 9.42797 18.6606 9.25236 18.843 9.38558C18.9231 9.42797 18.9764 9.58542 18.9898 9.71865C18.972 9.8337 18.9453 9.85793 18.8919 9.95482C18.5627 10.3545 18.3714 10.5119 18.02 10.8147C17.7575 11.0267 17.2147 11.4082 17.1658 11.4445C16.9434 11.602 16.4095 11.8442 16.4095 11.8442C15.9513 11.9653 15.8089 11.9108 15.7556 11.929C15.5465 11.9108 15.3641 11.7291 15.2662 11.4687C15.0971 10.8935 15.3908 10.3605 15.5064 9.84582C15.5376 9.66414 15.6176 9.47642 15.6399 9.29475C15.7289 9.05252 15.7911 8.70734 15.8712 8.43484C15.9646 8.14417 16.0136 7.82321 16.1159 7.52648C16.236 6.99358 16.4451 6.49702 16.3828 5.94595C16.3339 5.72189 16.2004 5.69161 16.0536 5.6795C15.8267 5.69766 15.7066 5.74005 15.5064 5.82483C15.1416 5.99439 14.8258 6.16395 14.5055 6.43646C14.3631 6.56363 13.9093 6.92697 13.7447 7.12681C13.7447 7.12681 12.6503 8.41062 12.4991 8.6044C12.3078 8.87085 12.1298 9.10096 11.9741 9.37347C11.9741 9.37347 11.3157 10.5725 10.9687 11.493C10.9287 11.602 10.9198 11.6686 10.7952 11.8139C10.6261 11.9774 10.3726 11.9714 10.1902 11.8442C9.97663 11.6746 9.90545 11.2265 9.94104 11.0267C10.0167 10.6209 10.1368 10.2818 10.2124 9.90032C10.5505 8.68312 10.8575 7.42959 11.2089 6.20029C11.2356 6.11551 11.2579 6.02467 11.1867 5.95806C11.0666 5.87328 10.9287 5.98228 10.813 6.01862C10.635 6.07917 9.86096 6.56363 9.53175 6.76347C9.24258 6.93303 9.12692 6.66052 9.12247 6.50307C9.12247 6.50307 9.14471 6.25479 9.34935 6.15184C9.58069 6.03073 11.0666 5.07998 11.5915 4.94676C11.9474 4.83776 12.4323 4.69848 12.7526 5.00732C12.7971 5.02548 13.0374 5.40699 12.8728 5.91567C12.7793 6.23057 12.6548 6.71502 12.6904 6.82402C12.7082 6.87247 12.7215 6.90275 12.8149 6.84825C12.9706 6.70291 14.1629 5.7885 14.2964 5.72794C14.8258 5.37066 15.4219 5.11632 16.018 4.92254C16.018 4.93465 16.5786 4.74086 16.9389 4.81353C17.3749 4.89226 17.7708 5.06787 17.9132 5.55838Z" fill="#2B2A29"/>
			<path fill-rule="evenodd" clip-rule="evenodd" d="M59.7133 4.94665C59.8735 4.98904 59.9758 4.96482 60.1404 5.30394C60.216 5.47955 60.2472 5.64911 60.2427 5.87923C60.2294 6.01245 60.1582 6.4848 60.0648 6.81786C60.0247 6.92686 59.9357 7.15698 60.1137 7.16909C60.1804 7.18726 61.0657 6.15779 61.1191 6.09723C61.4083 5.84289 61.5996 5.60066 61.9555 5.38872C62.1023 5.28577 62.1824 5.26155 62.3069 5.20099C62.5472 5.1041 62.6984 5.06171 62.9297 5.02537C63.0855 5.00115 63.5259 5.11015 63.5526 5.14043C63.7038 5.18888 64.0063 5.33421 64.0686 5.72783C64.0998 6.32735 63.8818 6.59985 63.7706 6.72702C63.5526 6.93897 63.21 7.06009 62.9653 6.86025C62.8497 6.73308 62.8719 6.55141 62.8719 6.36368C62.8096 5.77628 62.4092 6.08512 62.2936 6.15779C61.7019 6.52113 61.4528 6.89053 61.4528 6.89053C61.4528 6.89053 60.9723 7.35682 60.7232 7.79888C60.7232 7.79888 58.9481 10.5118 58.6323 11.1961C58.5255 11.3778 58.4098 11.6079 58.3031 11.7956C58.1696 12.0439 57.8804 12.1348 57.6624 12.0742C57.5201 12.0136 57.3332 11.7775 57.3065 11.6019C57.2531 11.1719 57.4533 10.8873 57.5067 10.5058C57.5379 10.4573 58.3253 7.39921 58.3609 7.30232C58.4454 6.93897 58.5655 6.58774 58.6412 6.21229C58.6456 6.12751 58.6056 5.95189 58.4499 5.97612C58.3031 5.97612 58.2764 6.00034 58.1073 6.0609C57.4355 6.38185 57.0796 6.63013 57.0796 6.63013C57.0129 6.69069 56.9729 6.73308 56.8795 6.80575C56.8795 6.80575 56.7193 6.93292 56.568 6.90264C56.5102 6.87842 56.4613 6.84208 56.4435 6.67252C56.4524 6.41818 56.5903 6.29101 56.5903 6.29101C56.5903 6.29101 56.9818 5.88528 57.3599 5.67333C57.7203 5.48561 58.0984 5.25549 58.4766 5.11621C58.9615 4.92848 59.6065 4.92243 59.7133 4.94665Z" fill="#2B2A29"/>
			<path fill-rule="evenodd" clip-rule="evenodd" d="M42.3456 4.80723C42.6703 4.84962 42.9284 4.90413 43.2353 5.03735C43.4667 5.11608 43.7692 5.32802 43.9293 5.57631C44.0183 5.72165 44.0895 5.98204 44.0672 6.21216C44.0494 6.29694 44.0583 6.33327 44.0094 6.49677C43.9605 6.65422 43.8715 6.95095 43.5601 7.18712C43.2442 7.46569 43.0084 7.5868 43.0084 7.5868C42.6392 7.79269 41.5537 8.31954 41.3846 8.40432C41.2601 8.45277 40.5839 8.71922 40.5349 8.7495C40.308 8.84033 40.0767 8.91905 39.8409 8.99172C39.5384 9.07045 38.8044 9.27029 38.4396 9.34901C38.1726 9.41562 37.8924 9.46407 37.4564 9.58518C37.3274 9.65785 37.363 9.88797 37.3808 10.0575C37.4075 10.2634 37.4164 10.3664 37.4831 10.5299C37.4964 10.5359 37.621 10.8569 37.839 10.9174C37.9991 10.984 38.1326 11.0143 38.4574 11.0204C39.0713 10.9417 40.0901 10.6752 40.0634 10.6873C40.2191 10.6389 41.1311 10.2937 41.1711 10.2695C41.6249 10.0636 42.0653 9.84558 42.4879 9.57913C42.5769 9.51857 42.6837 9.45196 42.7771 9.3914C42.8794 9.34295 42.9506 9.3369 43.0262 9.3914C43.1108 9.47012 43.1597 9.52462 43.1108 9.73052C42.9773 10.112 42.6392 10.1847 42.3856 10.3543C42.221 10.4269 41.6916 10.7418 41.5759 10.8024C41.4781 10.8327 40.9531 11.1052 40.8552 11.1415C40.744 11.2081 39.9966 11.4927 39.7253 11.6017C39.356 11.7289 38.3906 11.959 38.3595 11.9408C38.1771 11.9772 37.6655 12.0075 37.6432 12.0014C37.4875 12.0256 37.1227 11.9832 37.0338 11.9711C36.6512 11.9348 36.2908 11.7228 36.0106 11.4079C35.8015 11.1052 35.7347 10.8205 35.7036 10.7115C35.6636 10.548 35.6458 10.4754 35.628 10.2634C35.5924 9.68207 35.6947 9.15523 35.8949 8.70105C36.0328 8.39826 36.193 8.13787 36.3086 7.96831C36.5533 7.55652 37.1316 6.90251 37.1316 6.90251C37.4297 6.56339 37.9458 6.12132 38.4841 5.80643C38.7821 5.58236 39.9032 5.13424 40.139 5.05552C40.5438 4.89807 41.3535 4.78907 41.3535 4.78907C41.8696 4.72245 42.0297 4.78301 42.3456 4.80723ZM51.4522 4.9344C50.211 5.09791 49.775 5.23719 49.5526 5.34619C49.3524 5.4128 48.6539 5.66109 48.129 5.99415C47.9466 6.13343 47.733 6.25455 47.5551 6.412C47.0524 6.75717 46.0158 7.91986 45.6243 8.57388C45.5531 8.61627 45.126 9.45196 45.0059 9.85163C44.7968 10.3482 44.8369 10.984 44.9081 11.1415C45.1527 12.0196 45.5665 11.9954 45.869 11.9954C46.563 11.9651 46.9189 11.844 47.4483 11.6744C47.5417 11.6562 48.0044 11.4443 48.1245 11.3958C48.5649 11.2323 50.3088 10.0757 50.6425 9.82135C50.7092 9.79108 50.856 9.63363 50.9228 9.66391L50.856 9.9788C50.7715 10.33 50.6292 10.8387 50.6292 11.1778C50.6203 11.2626 50.6647 11.844 51.1185 11.959C51.5056 12.0438 51.728 11.9469 51.9949 11.8742C52.0705 11.844 52.0972 11.8318 52.1907 11.7834C52.4398 11.7047 53.9969 10.542 54.2549 10.2937C54.3839 10.1847 54.5085 10.0636 54.5663 9.89402C54.6597 9.62757 54.4773 9.47618 54.4595 9.47618C54.2905 9.42773 54.2059 9.51251 54.068 9.64574C53.8411 9.90008 53.6765 10.0333 53.3384 10.3179C53.076 10.4935 52.8535 10.6873 52.5599 10.7297C52.4665 10.7176 52.4487 10.6813 52.4487 10.6813C52.3464 10.5601 52.4131 10.3785 52.4442 10.221C52.4932 10.0272 53.2628 7.13262 53.3384 6.80562C53.3651 6.72689 53.5787 5.90937 53.6098 5.7822C53.6499 5.65503 53.6721 5.53392 53.6943 5.37647C53.6943 5.20691 53.6009 5.15241 53.503 5.11002C52.8313 4.9344 52.204 4.92229 51.4522 4.9344ZM41.4781 5.43703C41.2779 5.46125 41.0999 5.5097 40.7173 5.62475C40.526 5.69137 40.2725 5.77615 40.1835 5.83065C39.9032 5.96387 39.6318 6.12738 39.3605 6.29088C38.2394 6.98729 37.8167 8.07731 37.7634 8.22265C37.7055 8.31348 37.5765 8.7495 37.5409 8.81005C37.5676 8.77372 37.6877 8.75555 37.8123 8.71922C37.8123 8.71922 38.9334 8.42854 39.1247 8.36193C39.3427 8.30137 39.5295 8.24687 39.792 8.14998C40.4638 7.90775 41.527 7.32035 41.705 7.2174C41.9363 7.09023 42.2788 6.78139 42.4212 6.50283C42.5146 6.30299 42.5547 6.09104 42.5057 5.87909C42.479 5.75798 42.3945 5.66109 42.3322 5.58842C42.3322 5.58842 42.181 5.35225 41.4781 5.43703ZM51.9415 5.7822C51.768 6.50283 51.5634 7.25374 51.3765 7.99253C51.341 8.11365 51.3187 8.3256 51.163 8.53755C50.9895 8.73133 50.6203 9.00383 50.5847 9.01595C50.5357 9.08861 49.0498 10.0636 48.4938 10.33C48.3469 10.3966 47.7731 10.651 47.604 10.6994C46.8477 10.9417 46.7854 10.3482 46.781 10.2634C46.7543 10.1544 46.781 9.79108 46.8032 9.71235C46.9367 9.11284 47.1636 8.5981 47.4616 8.14998C47.7108 7.6958 48.3202 7.00545 48.7384 6.70267C49.5437 6.08499 50.1976 5.87304 50.2288 5.86093C50.598 5.75798 51.6835 5.58842 51.857 5.59448C52.0038 5.60659 51.9415 5.7822 51.9415 5.7822Z" fill="#2B2A29"/>
			<path d="M95.4816 5.45045V4.47549H93.6042V2.87073H93.3684L91.6467 4.99022V5.45045H92.3185L92.3229 10.3011C92.3229 11.0217 92.4386 11.5122 92.6877 11.8513C92.9502 12.2147 93.3595 12.3903 93.9245 12.3903C94.8409 12.3903 95.3703 11.7242 95.5082 11.5183L95.526 11.494L95.6506 11.3063C95.6506 11.3063 95.5661 11.2034 95.4904 11.0883C95.4326 10.9975 95.2992 10.8279 95.2992 10.8279C95.2502 10.8703 95.1746 10.9732 95.0901 11.0459C95.0233 11.0944 94.9433 11.167 94.8854 11.1852C94.7698 11.2458 94.6541 11.27 94.5384 11.27C94.2448 11.27 94.0357 11.1731 93.8933 10.9793C93.6531 10.6523 93.622 10.0588 93.622 9.46538V5.45045H95.4816Z" fill="#2B2A29"/>
			<path d="M131.921 7.67236C132.651 7.67236 132.909 7.64813 132.967 7.53913C133.038 7.39985 133.02 7.17579 133.007 6.9275C132.98 6.40671 132.753 5.54075 132.446 5.11685C132.024 4.52945 131.45 4.2085 130.742 4.2085C128.972 4.2085 127.637 6.07971 127.637 8.56254C127.637 9.22867 127.748 10.2036 128.287 11.0817C128.789 11.8992 129.604 12.3655 130.533 12.3655C131.334 12.3655 132.388 11.875 133.02 10.6154L133.096 10.4398C133.096 10.4398 132.971 10.2642 132.896 10.1915C132.816 10.1189 132.66 10.0038 132.638 10.0038L132.517 10.2036C131.997 10.8334 131.721 10.9545 131.232 10.9788C130.56 10.9969 129.986 10.676 129.572 10.1067C129.141 9.51329 128.901 8.65338 128.901 7.69658L131.921 7.67236ZM131.677 6.25532C131.686 6.41277 131.712 6.51572 131.61 6.63078C131.481 6.764 130.662 6.764 130.102 6.764L128.972 6.75189C129.047 6.26138 129.412 5.06841 130.564 5.06841C130.907 5.06235 131.218 5.25613 131.401 5.48019C131.605 5.72848 131.668 6.11604 131.677 6.25532Z" fill="#2B2A29"/>
			<path d="M98.6358 2.53758L99.8947 0.39386H98.2665L97.5814 2.54364L98.6358 2.53758Z" fill="#2B2A29"/>
			<path d="M73.318 11.4211L72.7441 11.3484C72.3037 11.306 72.0679 10.6581 72.0768 9.84057C72.0946 8.38114 72.1524 6.89144 72.1969 5.71664C72.2325 4.8749 72.2681 4.00288 72.3126 3.10058C72.9354 4.97179 73.9275 7.54546 74.3234 8.61126C74.5859 9.30767 75.4223 11.5967 75.578 12.2205H76.0584C76.2942 11.4635 77.0505 9.49539 77.6022 8.12075C77.6022 8.12075 79.5151 3.3852 79.5952 3.1793L79.6352 9.84057C79.6441 10.537 79.5196 11.2758 78.9368 11.3484L78.483 11.4211L78.4875 12.1538C78.4875 12.1538 79.8799 12.0993 80.4049 12.0993C80.9298 12.0993 82.2822 12.1538 82.2822 12.1538V11.4272L81.8018 11.3666C81.3169 11.306 81.09 10.5491 81.0677 9.90112C81.0099 8.19342 80.961 5.70453 80.9387 3.78487L80.9209 2.36178C80.8987 1.6351 81.09 0.908415 81.8062 0.847859C81.8018 0.847859 82.2511 0.799413 82.2511 0.799413V6.10352e-05C82.2511 6.10352e-05 81.1879 0.0787851 80.8097 0.0787851C80.525 0.0787851 80.2314 0.0787851 79.7554 0.0242838L79.6263 0.0121724L79.6174 0.187788C79.5952 0.956861 79.2082 1.90761 78.572 3.48209C78.572 3.48209 77.402 6.50993 77.1083 7.19423C76.9082 7.66052 76.5256 8.67787 76.2142 9.37428C75.9606 8.77477 75.7203 8.16314 75.4712 7.52124L73.7051 3.04608C73.367 2.17406 72.9176 0.926583 72.9799 0.218066L72.9977 0.0121724L72.8464 0.0242838C72.3793 0.0787851 72.0056 0.0787851 71.6764 0.0787851C71.3383 0.0787851 70.3463 0.00611673 70.3463 0.00611673C70.3463 0.00611673 70.3463 0.266512 70.3463 0.436071C70.3507 0.617742 70.3463 0.799413 70.3463 0.799413L70.7066 0.841803C71.3917 0.968972 71.5652 1.51399 71.5519 2.19828C71.5341 3.0703 71.494 4.57211 71.3962 6.1587C71.2849 7.91486 71.2316 9.04122 71.1337 10.0162C71.0581 10.8034 70.7199 11.2939 70.3374 11.3605L69.8925 11.4211V12.172C69.8925 12.172 71.0758 12.1115 71.543 12.1115C72.0991 12.1115 73.318 12.1538 73.318 12.1538V11.4211Z" fill="#2B2A29"/>
			<path d="M90.1476 4.44525L89.9563 4.46342L88.3992 4.48159L88.2435 4.45736L88.1545 5.3415C87.8031 4.61481 87.0379 4.36047 86.5308 4.36047C84.5689 4.36047 83.4967 6.37702 83.4967 8.87197C83.4967 9.82271 83.777 10.7795 84.2574 11.4335C84.8358 12.2268 85.4942 12.2934 86.0992 12.3177C86.3217 12.3298 86.4729 12.3116 86.6909 12.251L87.5273 11.1731V11.0823C87.5273 11.0823 87.0112 11.3245 86.5219 11.3185C86.1482 11.3124 85.8101 11.0944 85.5031 10.6887C85.1072 10.1618 84.9248 9.13236 84.9248 8.1574C84.9248 6.81303 85.2896 5.30516 86.5441 5.26883C87.2692 5.25066 87.6963 5.91073 87.8298 6.27407C87.9366 6.5708 87.9944 6.66164 87.9944 7.90306L88.0077 10.0044L88.0166 11.2095L88.0389 12.1542C88.0389 12.1542 89.4803 12.0815 90.0141 12.1239C90.0141 12.1239 90.2677 12.1542 90.3522 12.1542L90.3745 11.4517V11.4456L90.1431 11.4093C89.7694 11.3124 89.5025 11.1913 89.3913 10.8764C89.3023 10.6281 89.3112 9.1687 89.3112 9.1687C89.3112 9.1687 89.3112 7.14004 89.3201 6.52841C89.3335 5.86834 89.418 5.43839 89.676 5.287C89.8851 5.17194 90.1476 5.12349 90.1476 5.12349V4.44525Z" fill="#2B2A29"/>
			<path d="M105.794 9.6106C105.78 10.7006 105.66 11.179 105.371 11.3183C105.153 11.4213 104.899 11.4213 104.899 11.4213V12.1661L105.126 12.154C105.531 12.1177 105.949 12.1177 106.457 12.1177C106.955 12.1177 107.382 12.1177 107.787 12.154L108.009 12.1661V11.4334C108.009 11.4334 107.8 11.4152 107.546 11.3486C107.293 11.288 107.102 11.0276 107.093 9.91339L107.097 6.78865C107.097 6.2073 106.95 5.51695 106.648 5.09911C106.332 4.66916 105.887 4.34821 105.322 4.34821C104.588 4.34821 103.854 4.83266 103.285 5.4019L103.307 4.4451C103.307 4.4451 102.711 4.49354 102.288 4.4996C101.981 4.50565 101.149 4.4451 101.149 4.4451V5.09911C101.327 5.12939 101.576 5.29289 101.696 5.41401C101.834 5.55329 101.981 5.9348 101.981 6.31025L101.977 9.6106C101.968 10.7006 101.821 11.2154 101.536 11.3486C101.323 11.4515 101.078 11.4515 101.078 11.4515V12.1661L101.305 12.154C101.71 12.1177 102.132 12.0995 102.631 12.0995C103.133 12.0995 103.556 12.1177 103.961 12.154L104.188 12.1661V11.4273C104.188 11.4273 103.93 11.4213 103.734 11.3425C103.44 11.2275 103.289 11.0276 103.28 9.91339L103.285 7.18833C103.285 6.8371 103.334 6.51614 103.489 6.25575C103.649 5.98324 104.036 5.63807 104.575 5.63807C104.984 5.63807 105.3 5.83791 105.505 6.11041C105.696 6.37686 105.798 6.80682 105.798 7.17622L105.794 9.6106Z" fill="#2B2A29"/>
			<path d="M123.78 4.44495C123.78 4.44495 124.149 4.5055 125.03 4.49945C125.03 4.49945 125.546 4.49945 125.951 4.46311C125.951 4.46311 125.942 5.68031 125.942 6.98834V10.3735C125.942 11.0396 126.405 11.4211 126.863 11.4877C126.863 11.4877 126.85 11.73 126.85 11.8329C126.85 11.954 126.854 12.1539 126.85 12.1478L126.61 12.1357C126.24 12.1417 125.515 12.0388 125.168 12.1115L124.786 12.1841L124.688 11.1123C124.185 11.6815 123.344 12.2931 122.597 12.2931C122.032 12.2931 121.587 12.0509 121.276 11.5665C120.991 11.1244 120.826 10.5067 120.826 9.79819V6.6795C120.817 5.78326 120.648 5.41991 120.395 5.25641C120.23 5.15346 120.057 5.09896 120.057 5.09896V4.44495C120.057 4.44495 120.297 4.49339 121.173 4.48734C121.676 4.48734 122.125 4.44495 122.125 4.44495C122.125 4.44495 122.125 5.72876 122.125 6.6795V9.3864C122.125 9.89508 122.25 10.3371 122.428 10.652C122.601 10.9609 122.868 11.1486 123.277 11.1486C123.816 11.1486 124.296 10.6884 124.456 10.4159C124.612 10.1555 124.639 9.94958 124.639 9.45907V6.6795C124.63 5.80748 124.479 5.43808 124.189 5.25035C123.971 5.10502 123.785 5.09896 123.785 5.09896L123.78 4.44495Z" fill="#2B2A29"/>
			<path d="M96.8919 5.20804C97.0654 5.23832 97.2745 5.32915 97.408 5.45027C97.5103 5.5411 97.7105 5.78333 97.7105 6.15273V6.72196V9.60447C97.7016 10.6884 97.5681 11.1366 97.2923 11.3061C97.0565 11.4515 96.8163 11.4515 96.8163 11.4515V12.1539L97.0432 12.1418C97.448 12.1115 97.8528 12.1115 98.3555 12.1115C98.8583 12.1115 99.2987 12.1115 99.7035 12.1418L99.9259 12.1539V11.4515C99.9259 11.4515 99.748 11.4575 99.4722 11.3606C99.1964 11.2577 99.0318 11.0215 99.0229 9.90726V6.57057C99.0229 5.37154 99.1029 4.43896 99.1029 4.43896C99.1029 4.43896 98.4134 4.53586 98.0219 4.51163C97.9285 4.51163 96.8118 4.45108 96.8118 4.45108C96.8118 4.45108 96.8163 4.66908 96.8163 4.83864C96.8207 5.02637 96.8118 5.18987 96.8118 5.18987L96.8919 5.20804Z" fill="#2B2A29"/>
			<path d="M110.75 2.53734L112.004 0.393616H110.372L109.691 2.54339L110.75 2.53734Z" fill="#2B2A29"/>
			<path d="M109.001 5.20767C109.175 5.23795 109.384 5.32879 109.517 5.4499C109.62 5.54074 109.82 5.78296 109.82 6.15236V6.7216V9.60411C109.811 10.6881 109.678 11.1362 109.402 11.3058C109.166 11.4511 108.926 11.4511 108.926 11.4511V12.1536L109.153 12.1414C109.558 12.1112 109.967 12.1112 110.465 12.1112C110.968 12.1112 111.408 12.1112 111.813 12.1414L112.035 12.1536V11.4511C112.035 11.4511 111.853 11.4572 111.582 11.3603C111.306 11.2573 111.141 11.0211 111.132 9.90689V6.5702C111.132 5.37118 111.212 4.4386 111.212 4.4386C111.212 4.4386 110.523 4.53549 110.127 4.51127C110.038 4.51127 108.926 4.45071 108.926 4.45071C108.926 4.45071 108.926 4.66872 108.926 4.83827C108.93 5.026 108.926 5.1895 108.926 5.1895L109.001 5.20767Z" fill="#2B2A29"/>
			<path d="M117.276 12.178C118.429 11.5664 119.131 10.1978 119.131 8.21761C119.131 5.7166 117.859 4.01495 116.008 4.01495C114.149 4.01495 112.836 5.88616 112.836 8.30239C112.836 10.7004 113.998 12.2628 115.457 12.4324C115.457 12.4324 115.506 12.4505 115.875 12.4808L116.805 14.4368L118.664 14.4429L117.045 12.3052C117.263 12.1901 117.276 12.178 117.276 12.178ZM116.36 11.627C115.443 11.8934 114.46 10.9306 114.322 8.52039C114.22 6.71579 114.66 5.1837 115.808 5.05048C116.929 4.92331 117.588 6.27373 117.699 8.12072C117.806 9.92531 117.432 11.306 116.36 11.627Z" fill="#2B2A29"/>
		</symbol>		
		<symbol id="brand4-1">
			<path d="M15.776 15.6189C15.7317 15.7937 15.7317 16.0209 15.5231 16.082C15.2892 16.0324 15.0702 15.8932 14.8907 15.6801C14.3545 15.3112 13.8387 14.8877 13.3479 14.4132C13.0698 14.1619 12.8745 13.7696 12.804 13.321C12.8862 12.8579 13.2657 13.3821 13.683 13.4345C13.9739 13.4345 14.0181 14.1248 14.2647 14.4132C14.4258 14.5726 14.6085 14.6857 14.8018 14.7457C14.9952 14.8058 15.1953 14.8115 15.3903 14.7627C15.5547 14.7627 15.7254 14.7015 15.8519 14.7015C15.9783 14.7015 16.0163 14.8151 15.9784 14.8763C15.8962 15.1646 15.8519 15.3918 15.7697 15.6277L15.776 15.6189Z" fill="#1B2747"/>
			<path fill-rule="evenodd" clip-rule="evenodd" d="M14.6946 14.4482C14.9693 14.5356 15.2547 14.5356 15.5293 14.4482C15.5736 14.4482 15.5736 14.3346 15.5293 14.3346C15.3649 14.221 15.0298 14.221 14.8211 14.1075C14.6766 14.0521 14.5367 13.976 14.4038 13.8803C14.3216 13.8191 14.2394 13.8191 14.3216 13.9939C14.3556 14.104 14.4066 14.2025 14.471 14.2824C14.5355 14.3624 14.6118 14.422 14.6946 14.457V14.4482Z" fill="#E10585"/>
			<path d="M5.9243 8.23575C6.88545 9.56388 7.18896 9.38913 7.18896 9.38913C7.23323 9.21438 7.18898 8.92603 7.06251 8.8736C6.93604 8.82117 6.68943 8.5241 6.43018 8.23575C5.36874 6.9964 4.37731 5.64688 3.46455 4.19896C3.42029 4.08537 3.33807 4.08537 3.25587 4.19896C3.23547 4.24176 3.22461 4.29188 3.22461 4.34313C3.22461 4.39437 3.23547 4.44451 3.25587 4.48731L5.9243 8.23575Z" fill="#1B2747"/>
			<path d="M4.08423 2.74837C4.157 2.70002 4.24024 2.69114 4.31751 2.72349C4.39479 2.75585 4.46045 2.82709 4.50155 2.92312C4.56404 3.10025 4.63372 3.27236 4.71023 3.43864C4.75774 3.55138 4.78638 3.6774 4.79404 3.80744C4.8017 3.93747 4.78818 4.06821 4.7545 4.19008C4.71023 4.41726 4.67229 4.65319 4.62802 4.82794C4.61712 4.85916 4.60099 4.88635 4.58098 4.90726C4.56096 4.92816 4.53763 4.94217 4.51292 4.94815C4.4882 4.95412 4.4628 4.95188 4.43883 4.94161C4.41487 4.93135 4.39303 4.91335 4.3751 4.8891C4.00202 4.25125 3.54042 3.56098 3.54042 3.49981C3.45821 3.21147 4.08423 2.74837 4.08423 2.74837Z" fill="#E21243"/>
			<path d="M5.17185 3.96299C5.27928 4.05022 5.39131 4.12616 5.50699 4.19016C5.65792 4.27865 5.77808 4.44469 5.84212 4.65326C5.91101 4.97464 5.9659 5.30144 6.00651 5.63189C6.1046 6.15226 6.2742 6.64172 6.50606 7.07359C6.53792 7.17415 6.55438 7.28275 6.55438 7.39252C6.55438 7.5023 6.53792 7.61088 6.50606 7.71144C6.50606 7.71144 6.50605 7.7726 6.46179 7.71144L5.19713 5.96391C5.06452 5.78218 4.93994 5.58962 4.82406 5.38723C4.79075 5.32085 4.7751 5.24056 4.77979 5.16004C4.86199 4.93287 4.94421 4.35618 5.03274 4.12026C5.12126 3.88434 5.15919 3.94552 5.19713 4.00668L5.17185 3.96299Z" fill="#1B2747"/>
			<path fill-rule="evenodd" clip-rule="evenodd" d="M6.75893 8.17454C6.71467 8.17454 6.71467 8.11337 6.71467 8.06095C6.77162 7.77673 6.78667 7.4796 6.75893 7.18718C6.59493 6.74214 6.45542 6.28064 6.34159 5.80663C6.34159 5.69304 6.2594 5.29111 6.21514 4.93287C6.17088 4.75811 6.37954 4.70568 6.4238 4.8717C6.46806 5.03771 6.46807 5.04646 6.46807 5.09888C6.58484 6.05823 6.79765 6.99044 7.1004 7.86872C7.35333 8.4454 7.39126 8.38423 7.39126 8.55899C7.43553 8.67258 7.30907 8.78617 7.26481 8.67258L6.75893 8.17454Z" fill="#E31145"/>
			<path d="M10.8064 7.30943C10.8125 7.311 10.8187 7.3105 10.8246 7.30798C10.8305 7.30546 10.8359 7.30099 10.8403 7.29496C10.8446 7.28894 10.8479 7.28154 10.8497 7.27341C10.8515 7.26527 10.8519 7.25663 10.8507 7.24826C10.7656 7.08928 10.6955 6.91606 10.6419 6.73274V6.5842C10.6419 6.52304 10.5596 6.52304 10.5596 6.5842C10.496 6.65513 10.4258 6.7139 10.3508 6.75895C10.2685 6.87254 10.0976 7.16089 9.9774 7.33564C9.94139 7.38855 9.91788 7.45531 9.90996 7.52709C9.90205 7.59886 9.91014 7.67228 9.93312 7.73758L10.0976 8.20068C10.0976 8.31427 10.1419 8.42785 10.1419 8.55018C10.1419 8.6725 10.2242 8.61134 10.2685 8.55018L10.8064 7.30943Z" fill="#1B2747"/>
			<path fill-rule="evenodd" clip-rule="evenodd" d="M11.0589 7.71137L10.4266 8.97834V9.03949C10.4266 9.21425 10.553 9.61619 10.553 9.72978C10.5533 9.95417 10.5969 10.1744 10.6795 10.3676C10.806 10.5948 11.2612 11.0579 11.3498 11.2414L11.8114 11.6433C11.8556 11.6433 12.02 11.5821 11.8556 11.1802C11.6912 10.7783 11.5647 10.7171 11.4825 10.3065C11.4579 9.72149 11.4855 9.13455 11.5647 8.55892C11.5474 8.38416 11.4897 8.22179 11.4003 8.09582C11.3181 7.92107 11.1917 7.80749 11.1474 7.6939C11.1031 7.58031 11.0652 7.63274 11.0652 7.6939L11.0589 7.71137Z" fill="#00A3D3"/>
			<path d="M9.93386 8.46287C9.97815 8.17452 9.725 7.82503 9.6807 7.88619C9.63641 7.94735 9.18078 8.81238 9.18078 8.81238C9.18078 8.81238 9.13648 8.92596 9.18078 8.92596L9.51618 9.3279C9.51618 9.38906 9.56048 9.38906 9.59845 9.3279C9.63642 9.26674 9.93386 8.81238 9.93386 8.45413V8.46287Z" fill="#1B2747"/>
			<path d="M11.1853 6.84641C11.1853 6.90757 11.1031 6.90757 11.1031 6.84641C11.0416 6.71785 10.9867 6.58354 10.9387 6.44447C10.9177 6.39081 10.9066 6.33075 10.9066 6.26972C10.9066 6.20869 10.9177 6.14863 10.9387 6.09497C11.0899 5.75654 11.2029 5.38824 11.2738 5.00276C11.4003 4.36491 12.4436 1.01839 12.5385 0.633933C12.5566 0.590163 12.5819 0.55287 12.6124 0.525045C12.6429 0.49722 12.6776 0.479632 12.7139 0.473688C12.7501 0.467744 12.7869 0.473603 12.8212 0.490807C12.8555 0.508011 12.8865 0.53608 12.9116 0.572763C12.9755 0.674247 13.0173 0.798847 13.0318 0.931943C13.0464 1.06504 13.0332 1.20111 12.9938 1.3242L11.1853 6.84641Z" fill="#1B2747"/>
			<path d="M11.2674 7.13473L12.1843 4.59207C12.224 4.46326 12.2796 4.34499 12.3487 4.24256C12.8482 3.72704 13.4742 3.49112 13.9358 2.91444C13.9801 2.85327 14.0623 2.97559 14.018 3.02802L11.6784 7.87742C11.5962 8.1046 11.3875 7.76384 11.3053 7.65025C11.2581 7.58288 11.2282 7.49594 11.2202 7.40281C11.2122 7.30967 11.2266 7.21549 11.2611 7.13473H11.2674Z" fill="#1B2747"/>
			<path d="M13.7714 8.81243C13.8156 8.75126 13.8536 8.81242 13.8536 8.87358C13.8536 8.93475 13.8093 8.98718 13.7714 9.04835C13.4867 9.14966 13.2185 9.32458 12.981 9.56387C12.903 9.69475 12.8586 9.85755 12.8545 10.027C12.8545 10.1406 12.728 10.3153 12.4372 10.0881C12.1053 9.72217 11.8698 9.21558 11.7669 8.64641C11.7669 8.53282 11.8112 8.41923 11.8934 8.47166C11.9756 8.52408 11.9756 8.53281 12.0578 8.58524C12.2222 8.81242 12.5194 9.2231 12.766 9.2231C13.0223 9.18758 13.2748 9.11135 13.5185 8.99591C13.5982 8.92578 13.6829 8.86722 13.7714 8.82116V8.81243Z" fill="#1B2747"/>
			<path fill-rule="evenodd" clip-rule="evenodd" d="M13.7714 10.7172C14.1065 11.0667 14.1445 10.892 14.3152 10.7784C14.4955 10.5312 14.6855 10.2979 14.8843 10.0794C15.3458 9.73068 15.8363 9.46075 16.345 9.27553C16.7052 9.1382 17.0354 8.88008 17.3061 8.52409H17.3504C17.3947 8.41051 17.3504 8.29692 17.2682 8.34934C16.307 8.63769 14.5934 8.52409 14.2583 8.86486C13.9703 9.10665 13.6625 9.30024 13.3414 9.44155C13.1328 9.55514 12.9241 10.2454 13.2149 10.2454C13.5058 10.2454 13.5058 10.4202 13.7967 10.7085L13.7714 10.7172Z" fill="#754090"/>
			<path d="M17.4453 7.8861C17.4896 7.8861 17.5275 7.82493 17.5718 7.77251C17.5806 7.61557 17.5655 7.45781 17.5275 7.30941C17.5275 7.13466 17.401 6.9599 17.2746 6.73272C17.1885 6.59673 17.0714 6.50533 16.9427 6.47357C16.8139 6.4418 16.6812 6.47157 16.5664 6.55797C16.5664 6.55797 15.0235 7.8861 14.5176 8.30551C14.5176 8.30551 14.5176 8.4191 14.5619 8.4191C15.5334 8.34462 16.4983 8.15163 17.4453 7.84241V7.8861Z" fill="#1B2747"/>
			<path d="M13.5255 11.1716C13.6078 11.1716 13.6078 10.9969 13.5698 10.9445C13.5319 10.892 13.361 10.7173 13.3167 10.7697L12.7725 11.1716C12.6902 11.2328 12.6902 11.2852 12.7281 11.3988C12.7724 11.46 12.8104 11.5124 12.8547 11.46L13.5255 11.1716Z" fill="#1B2747"/>
			<path fill-rule="evenodd" clip-rule="evenodd" d="M4.66593 11.3463C4.62166 11.2327 4.71019 11.1716 4.74813 11.2328C4.91254 11.3463 5.03901 11.6959 5.20974 11.7483C5.31886 11.7409 5.42227 11.6787 5.50061 11.5735C5.56968 11.4711 5.62532 11.3528 5.66502 11.224C5.70928 11.1628 5.70927 11.1104 5.74721 11.0493C5.78515 10.9881 5.82941 11.0493 5.82941 11.1104C5.78515 11.5124 5.82941 11.9842 5.78514 12.3774C5.72543 13.0428 5.50221 13.6597 5.15281 14.1249C5.02635 14.2385 4.89988 14.3521 4.81768 14.1861C4.73548 14.0201 4.77343 13.8977 4.77343 13.723C4.83583 13.4202 4.87815 13.1102 4.89989 12.7968C4.86503 12.3022 4.77989 11.8168 4.64696 11.3551L4.66593 11.3463Z" fill="#754090"/>
			<path d="M5.54511 8.86473H5.50081C5.46993 8.85547 5.43794 8.856 5.40724 8.86628C5.37653 8.87656 5.34792 8.89631 5.32355 8.92407C5.29918 8.95183 5.27969 8.98687 5.26654 9.02654C5.2534 9.0662 5.24695 9.10947 5.24767 9.15307C5.28661 9.62566 5.43281 10.0691 5.66535 10.42C5.66422 10.4284 5.66457 10.437 5.66639 10.4452C5.66822 10.4533 5.67146 10.4607 5.67582 10.4667C5.68018 10.4728 5.68555 10.4772 5.69144 10.4797C5.69734 10.4823 5.70357 10.4828 5.70964 10.4812V10.42C5.83132 10.1705 5.92918 9.90031 6.00076 9.61617C6.04505 9.21424 5.70964 8.97832 5.53878 8.86473H5.54511Z" fill="#1B2747"/>
			<path fill-rule="evenodd" clip-rule="evenodd" d="M2.83228 5.0551C2.78802 4.88034 2.91449 4.76676 2.99669 4.88035C3.27141 5.23369 3.5232 5.61962 3.74917 6.03371C3.95783 6.43564 4.21076 6.95991 4.41943 7.30068C4.6281 7.64145 5.05176 8.10454 5.05176 8.56764C5.05176 8.74239 4.67868 9.89576 4.50795 9.95692C4.33722 10.0181 4.29928 9.89576 4.25502 9.72975C3.88613 8.11423 3.40985 6.54934 2.83228 5.0551Z" fill="#754090"/>
			<path d="M2.33262 4.65319C3.02618 6.01232 3.5617 7.51294 3.91978 9.10067C3.96404 9.27542 3.8755 9.38901 3.7933 9.27542C3.13453 8.54847 2.437 7.89128 1.70662 7.30945C1.70662 7.24828 1.66235 7.19586 1.66235 7.1347C1.75487 6.60873 1.86672 6.08962 1.99749 5.5794C2.09146 5.30497 2.14724 5.00856 2.1619 4.70563C2.1619 4.59204 2.24411 4.53087 2.32631 4.59204V4.65319H2.33262Z" fill="#1B2747"/>
			<path d="M6.46221 9.79109V9.90469C6.43583 10.2815 6.33515 10.6411 6.17111 10.9445L6.1268 11.0056L6.0825 10.9445L5.95594 10.7697C5.94988 10.7713 5.94362 10.7708 5.93773 10.7683C5.93184 10.7657 5.92647 10.7613 5.92211 10.7553C5.91774 10.7492 5.91453 10.7418 5.9127 10.7337C5.91088 10.7255 5.91051 10.7169 5.91164 10.7085V10.595C6.0159 10.3032 6.08638 9.99067 6.12049 9.66876C6.16479 9.55518 6.24704 9.49401 6.28501 9.55517L6.44956 9.78236L6.46221 9.79109Z" fill="#1B2747"/>
			<path d="M5.50692 10.6559C5.52348 10.6784 5.53608 10.7059 5.54376 10.7362C5.55143 10.7665 5.55396 10.7988 5.55117 10.8307C5.55671 10.838 5.56114 10.8468 5.56415 10.8566C5.56717 10.8663 5.56873 10.8768 5.56873 10.8875C5.56873 10.8981 5.56717 10.9086 5.56415 10.9183C5.56114 10.9281 5.55671 10.9369 5.55117 10.9443C5.49152 11.0418 5.41129 11.1111 5.3217 11.1424C5.23212 11.1738 5.13769 11.1656 5.05164 11.119C4.88723 11.0578 4.76077 10.8307 4.6343 10.6559C4.59004 10.6559 4.59003 10.5947 4.55209 10.5423C4.5317 10.4995 4.52081 10.4494 4.52081 10.3982C4.52081 10.3469 4.5317 10.2968 4.55209 10.254C4.59636 10.1928 4.63428 10.1404 4.67855 10.1404C4.77232 9.97779 4.8569 9.80543 4.9315 9.62486C4.97576 9.51128 5.14016 9.56371 5.18442 9.73846C5.25272 10.0737 5.36644 10.388 5.51956 10.6646L5.50692 10.6559Z" fill="#1B2747"/>
			<path fill-rule="evenodd" clip-rule="evenodd" d="M9.72465 14.1772C9.80385 13.92 9.8591 13.6499 9.88906 13.3734C9.88217 13.0069 9.85469 12.6418 9.80686 12.2812C9.765 11.937 9.765 11.5856 9.80686 11.2414C9.82016 11.0422 9.79162 10.842 9.72465 10.6647C9.67796 10.5932 9.62225 10.534 9.56024 10.49C8.55483 9.79968 8.39044 8.93465 8.39044 9.27542C8.30824 9.9657 8.64338 10.0793 8.80778 10.3152C8.95198 10.5217 9.10619 10.7144 9.26937 10.8919C9.31364 10.953 9.39584 11.0055 9.43378 11.1191C9.47277 11.2049 9.48846 11.3071 9.47805 11.4074C9.52066 11.5562 9.52066 11.7218 9.47805 11.8705C9.43379 11.9317 9.43379 11.9841 9.39585 11.9841C9.35791 11.9841 9.31364 11.9841 9.31364 11.9229C9.02277 11.5734 8.31456 10.1754 8.2703 10.5336C8.22604 10.8919 7.63797 10.822 7.63797 10.822C7.63797 10.822 8.13751 11.4598 8.30824 11.7482C8.53495 12.1118 8.69346 12.5469 8.76983 13.0151C8.83879 13.4717 8.86641 13.9384 8.85203 14.4044C8.81011 14.5923 8.81011 14.7932 8.85203 14.9811C8.85203 15.0423 8.80777 15.6714 9.10496 15.619C9.40216 15.5665 9.6867 14.352 9.73729 14.1772H9.72465Z" fill="#E31145"/>
			<path d="M7.88434 8.86486C7.54921 8.57652 7.71993 9.95707 7.84008 10.4813C7.86187 10.5136 7.89076 10.5351 7.92228 10.5425H7.96655C8.08277 10.3259 8.1409 10.0603 8.13096 9.79105C8.13096 9.79105 8.21317 9.10078 7.87803 8.86486H7.88434Z" fill="#1B2747"/>
			<path d="M10.3885 11.1715L10.4707 11.2851V11.4598L10.3885 11.9754C10.3849 11.9928 10.3783 12.0087 10.3692 12.0219C10.3602 12.0351 10.3491 12.045 10.3367 12.051C10.3243 12.057 10.3111 12.0588 10.2981 12.0563C10.2851 12.0538 10.2727 12.047 10.262 12.0365C10.2443 12.0248 10.2244 12.021 10.2051 12.0256C10.1858 12.0302 10.168 12.0429 10.1541 12.0621C10.1402 12.0813 10.131 12.1059 10.1277 12.1326C10.1244 12.1593 10.1271 12.1868 10.1356 12.2113C10.1391 12.3525 10.1673 12.4904 10.2178 12.6132C10.3016 13.1075 10.3016 13.6218 10.2178 14.1161C10.1414 14.5843 9.9829 15.0194 9.75619 15.3831C9.6291 15.5962 9.47207 15.7716 9.29458 15.8986C9.21238 15.8986 9.13018 15.8986 9.33885 15.6102C9.61406 15.2452 9.8409 14.8164 10.0091 14.3433C10.1139 14.0246 10.1644 13.6769 10.1567 13.3269C10.1491 12.977 10.0834 12.6342 9.96485 12.3249C9.92202 12.019 9.92202 11.7046 9.96485 11.3987C10.0002 11.2494 10.0153 11.0924 10.0091 10.9356C10.0091 10.822 10.0913 10.822 10.1356 10.8744L10.3885 11.1715Z" fill="#1B2747"/>
			<path fill-rule="evenodd" clip-rule="evenodd" d="M3.54025 12.0364C3.14777 11.7786 2.78199 11.4495 2.45264 11.0578C2.42079 10.9721 2.37795 10.8951 2.32618 10.8306C2.29123 10.7024 2.27615 10.5654 2.28192 10.4286C2.27284 10.3478 2.27543 10.2652 2.28954 10.1858C2.30365 10.1063 2.32899 10.0314 2.36412 9.96555L2.61705 9.7908C2.73817 9.74247 2.86418 9.72181 2.99012 9.72964C3.04117 9.74209 3.08987 9.76861 3.13333 9.80764C3.17679 9.84667 3.2141 9.89741 3.24305 9.95682C3.28731 10.0704 3.28732 10.184 3.32526 10.2452C3.3696 10.4343 3.4405 10.6095 3.53392 10.7607C3.66058 11.0046 3.80007 11.2353 3.95126 11.451C4.03346 11.5646 4.15994 11.6781 4.24214 11.8005C4.32435 11.9228 4.3686 11.9141 4.3686 11.9752C4.3686 12.0364 4.41286 12.5519 3.53392 12.0364H3.54025Z" fill="#00A3D3"/>
			<path d="M2.28881 9.84337L2.20655 9.95697H2.12428C2.07247 9.89245 2.02958 9.81548 1.9977 9.72979C1.92387 9.488 1.86872 9.23613 1.83316 8.97835C1.83316 8.86476 1.83316 8.75117 1.91543 8.69001C1.9977 8.62885 2.07999 8.57642 2.16858 8.57642C2.25718 8.57642 2.29514 8.69 2.33311 8.75117C2.46804 8.92593 2.56826 9.14555 2.62421 9.38902C2.75078 9.56378 2.41537 9.6162 2.28881 9.85212V9.84337Z" fill="#1B2747"/>
			<path d="M1.78923 9.90474C1.8715 10.0183 1.91579 10.1319 1.99806 10.2542C2.08033 10.3766 2.04236 10.3678 2.04236 10.429C2.04236 10.4902 1.99806 10.6038 1.96009 10.6038H1.87782C1.81806 10.5787 1.7637 10.5337 1.71955 10.4728C1.6754 10.4118 1.64281 10.3367 1.62469 10.2542C1.50595 10.0095 1.42019 9.73719 1.37155 9.45038C1.31636 9.28984 1.30079 9.10876 1.32725 8.93486C1.32725 8.87369 1.37156 8.70767 1.45383 8.82126C1.53609 8.93485 1.61836 9.62513 1.78923 9.91347V9.90474Z" fill="#1B2747"/>
			<path d="M3.79334 12.3861C3.56513 12.3424 3.34808 12.2225 3.16101 12.0366C2.79892 11.7707 2.47357 11.4188 2.19988 10.9969L2.07341 10.8221C2.05034 10.826 2.02696 10.8225 2.00504 10.8119C1.98311 10.8013 1.96324 10.7838 1.94695 10.7609C1.84023 10.7353 1.73937 10.6753 1.65257 10.5857C1.56578 10.4961 1.4955 10.3795 1.44741 10.2454C1.38842 9.96357 1.30342 9.69339 1.19448 9.44156C1.19448 9.38039 1.15021 9.32796 1.11227 9.38039L1.068 9.44156C1.02901 9.53782 1.00494 9.64423 0.997318 9.75405C0.989698 9.86386 0.99869 9.97466 1.02374 10.0794C1.07118 10.2503 1.16076 10.3927 1.27668 10.4813C1.44965 10.6422 1.60508 10.8364 1.73827 11.058C1.93911 11.4854 2.20987 11.8416 2.52868 12.0978C3.0952 12.5806 3.77374 12.7462 4.42567 12.5609C4.43325 12.5461 4.43817 12.529 4.43999 12.5111C4.44182 12.4931 4.44051 12.4748 4.43617 12.4577C4.43184 12.4406 4.42461 12.4252 4.41508 12.4128C4.40555 12.4003 4.39403 12.3912 4.38143 12.3861C4.1728 12.445 3.95772 12.445 3.7491 12.3861H3.79334Z" fill="#1B2747"/>
			<path d="M8.42836 0.669C8.3841 0.555411 8.34615 0.55542 8.30189 0.55542C8.18371 0.602131 8.08091 0.704024 8.01102 0.843751C7.9691 1.03162 7.9691 1.23257 8.01102 1.42044C8.17624 2.79609 8.47175 4.13572 8.88995 5.40481C8.98514 5.19058 9.04224 4.94823 9.05652 4.69762C9.07081 4.44701 9.0419 4.19528 8.97216 3.9631C8.82942 3.49199 8.70489 3.01075 8.59909 2.52139C8.54273 2.18058 8.52777 1.8292 8.55482 1.48161C8.57571 1.29046 8.57571 1.09607 8.55482 0.904921C8.52297 0.819234 8.48013 0.742262 8.42836 0.677747V0.669Z" fill="#1B2747"/>
			<path d="M8.84561 5.92017C8.78051 6.05339 8.69426 6.16434 8.59346 6.24459C8.49265 6.32483 8.37993 6.37226 8.26386 6.38326C8.04247 6.43444 7.81793 6.45492 7.59359 6.44442C7.59473 6.45279 7.59436 6.46143 7.59253 6.46956C7.59071 6.4777 7.58749 6.4851 7.58313 6.49112C7.57878 6.49714 7.57341 6.50161 7.56752 6.50413C7.56163 6.50665 7.55539 6.50715 7.54933 6.50559C7.50506 6.56675 7.50506 6.61917 7.54933 6.73276C7.599 6.86198 7.6413 6.99637 7.6758 7.1347C7.67467 7.14307 7.67502 7.15169 7.67684 7.15983C7.67867 7.16797 7.6819 7.17537 7.68626 7.18139C7.69062 7.18741 7.69598 7.19188 7.70187 7.1944C7.70776 7.19692 7.71401 7.19742 7.72007 7.19586H7.80225C7.99396 7.13867 8.1923 7.13867 8.38401 7.19586C8.59267 7.19586 8.75707 7.30945 8.9278 7.19586L9.01001 7.08228V6.33084C9.01987 6.23054 9.00424 6.12862 8.96576 6.04249C8.95421 6.00939 8.9363 5.9813 8.914 5.96127C8.89171 5.94124 8.86586 5.93005 8.83928 5.9289L8.84561 5.92017Z" fill="#1B2747"/>
			<path fill-rule="evenodd" clip-rule="evenodd" d="M8.13761 7.45795C8.0554 7.45795 7.97321 7.45796 7.92895 7.57155C7.88468 7.68514 7.92895 7.7463 7.97322 7.85989C8.13852 8.22237 8.35329 8.53695 8.60555 8.78608C8.68775 8.84725 8.81421 8.89967 8.89641 8.78608C8.97861 8.67249 8.97862 8.49773 8.94068 8.38414C8.9385 8.22326 8.91042 8.06506 8.85847 7.92105C8.85315 7.87749 8.83759 7.83757 8.81421 7.80746C8.81952 7.7639 8.83509 7.72399 8.85847 7.69388V7.63271C8.85645 7.58162 8.84328 7.53258 8.82071 7.49203C8.79814 7.45148 8.76721 7.42133 8.732 7.40553C8.53707 7.39743 8.34207 7.41793 8.15027 7.46669L8.13761 7.45795Z" fill="#E10585"/>
			<path fill-rule="evenodd" clip-rule="evenodd" d="M7.29644 6.04258C7.30009 6.05999 7.30669 6.07593 7.3157 6.0891C7.32472 6.10226 7.33588 6.11226 7.34826 6.11824C7.36064 6.12423 7.37387 6.12603 7.38685 6.12351C7.39984 6.12099 7.41221 6.11421 7.42292 6.10374C7.53146 6.05816 7.64467 6.0375 7.75805 6.04258C7.94331 6.06636 8.12996 6.02736 8.30185 5.92899C8.3375 5.92063 8.37112 5.90033 8.39978 5.86987C8.42844 5.8394 8.45127 5.79971 8.46626 5.75423C8.46626 5.69307 8.42199 5.64065 8.42199 5.57948C8.20126 4.94415 8.06014 4.26165 8.00465 3.56107C8.00465 3.44748 7.9604 3.3339 7.8782 3.3339C7.87214 3.33234 7.86589 3.33283 7.86 3.33535C7.85411 3.33787 7.84875 3.34234 7.84439 3.34837C7.84003 3.35439 7.83679 3.36179 7.83497 3.36992C7.83315 3.37806 7.8328 3.3867 7.83393 3.39507C7.72298 3.57689 7.65073 3.7977 7.62525 4.03292C7.54305 4.43485 7.49879 4.78435 7.41659 5.18628C7.37233 5.41346 7.33438 5.58822 7.29012 5.82414V6.05131L7.29644 6.04258Z" fill="#E10585"/>
			<path d="M7.29708 3.43872C7.25278 3.55231 7.13254 3.66591 7.04395 3.78824C6.94289 3.95676 6.8306 4.1118 6.70854 4.25133C6.66424 4.3125 6.62627 4.3125 6.58197 4.36493C6.4997 4.36493 6.4554 4.25133 6.49969 4.19016C6.54399 4.129 6.58197 4.01541 6.62627 3.96299C6.67057 3.91056 6.96168 3.3863 7.12622 3.08922C7.20849 2.97563 7.29075 3.02807 7.33505 3.15039C7.34547 3.25072 7.32976 3.35288 7.29074 3.43872H7.29708Z" fill="#1B2747"/>
			<path d="M10.2623 2.92329C10.0979 3.38638 10.0536 3.9019 9.88919 4.31257C9.78059 4.61614 9.65589 4.90819 9.51612 5.18634C9.51612 5.2475 9.47185 5.3611 9.51612 5.41352C9.5324 5.43641 9.55228 5.45382 9.5742 5.46443C9.59613 5.47503 9.61951 5.47854 9.64257 5.47468C9.68683 5.47468 9.72478 5.41353 9.76905 5.3611L10.022 5.01159C10.2847 4.52748 10.5094 4.00611 10.6922 3.45628C10.8002 3.10832 10.8705 2.74031 10.9009 2.36408C10.9009 2.25049 10.8187 2.18932 10.7744 2.25048C10.5781 2.43532 10.4087 2.66948 10.2749 2.94077L10.2623 2.92329Z" fill="#1B2747"/>
			<path d="M9.93376 3.32526C9.8861 3.81332 9.77232 4.28462 9.59835 4.71455C9.55406 4.77571 9.55405 4.82813 9.47178 4.8893C9.42748 4.8893 9.42747 4.77571 9.42747 4.71455C9.5172 4.25765 9.58695 3.79372 9.63632 3.32526C9.68062 3.21167 9.71858 3.21167 9.80085 3.21167C9.88312 3.21167 9.88313 3.27284 9.92742 3.32526H9.93376Z" fill="#1B2747"/>
			<path d="M11.0146 3.08928C10.7447 4.05505 10.3481 4.9437 9.84483 5.71058C9.84483 5.77174 9.92704 5.77175 9.97131 5.77175C10.0156 5.77175 10.0535 5.71058 10.0978 5.65816C10.3786 5.28751 10.6174 4.86038 10.806 4.3912C10.867 4.19333 10.9367 4.00074 11.0146 3.81451C11.1723 3.2024 11.2577 2.55925 11.2676 1.90969C11.2676 1.7961 11.1854 1.79611 11.1854 1.84854C11.1411 2.07572 11.0589 2.88832 11.021 3.06307L11.0146 3.08928Z" fill="#F27E04"/>
			<path d="M7.92878 15.3833C7.93347 15.3027 7.91782 15.2225 7.88451 15.1561C7.64244 14.8142 7.49476 14.3659 7.46717 13.8891C7.46996 13.8573 7.46743 13.8249 7.45976 13.7946C7.45209 13.7643 7.43949 13.7369 7.42292 13.7144C7.33931 13.5667 7.22061 13.4645 7.08779 13.426C7.04352 13.426 7.04352 13.426 7.00558 13.4872C6.96764 13.5483 6.96132 13.5483 6.92338 13.6008C6.8134 14.0058 6.75768 14.4351 6.75896 14.8677C6.80323 15.3308 6.92338 16.3095 7.34072 16.4842C7.46718 16.5454 7.75804 15.7328 7.92245 15.392L7.92878 15.3833Z" fill="#1B2747"/>
			<path d="M7.75811 14.5181C7.63024 14.2432 7.57238 13.9173 7.5937 13.5919C7.5937 13.5307 7.63797 13.5919 7.63797 13.5919C7.67961 13.701 7.73531 13.7987 7.80236 13.8802C7.92883 14.055 8.17544 14.1074 8.34617 14.2821C8.44057 14.4033 8.52536 14.5381 8.5991 14.6841V14.7452C8.60023 14.7536 8.59988 14.7623 8.59806 14.7704C8.59624 14.7785 8.593 14.7859 8.58864 14.7919C8.58428 14.798 8.57892 14.8024 8.57303 14.805C8.56714 14.8075 8.56089 14.808 8.55483 14.8064C8.51057 14.92 8.47264 14.92 8.39044 15.0336C8.36705 15.0637 8.35149 15.1036 8.34617 15.1472C8.32327 15.1743 8.29411 15.1891 8.26397 15.1891C8.23382 15.1891 8.20467 15.1743 8.18176 15.1472C8.01896 14.9666 7.87807 14.7513 7.76442 14.5093L7.75811 14.5181Z" fill="#1B2747"/>
			<path d="M7.42298 11.923C7.48544 11.701 7.48544 11.4548 7.42298 11.2328C7.37872 11.1716 7.34077 11.1192 7.29651 11.1192C7.25224 11.1192 7.17003 11.0056 7.13209 11.058C7.09415 11.1104 7.0499 11.1192 7.00564 11.1716C6.69248 11.5868 6.48786 12.1338 6.42389 12.7269C6.34168 13.3036 6.21523 14.8589 6.21523 14.9201C6.22138 15.0398 6.20618 15.1598 6.17096 15.2696C6.17096 15.3832 6.17096 15.5579 6.21523 15.6191C6.25949 15.6802 6.34168 15.7938 6.37962 15.8463C6.41756 15.8987 6.54404 15.9074 6.63257 15.9598C6.72109 16.0123 6.71475 15.8987 6.71475 15.7851C6.67627 15.699 6.66064 15.597 6.67051 15.4967C6.62624 15.3832 6.29742 14.6929 6.8349 13.19C6.87916 13.0764 7.04358 13.19 7.12578 13.2512C7.20799 13.3123 7.37871 13.4783 7.41665 13.3648C7.45459 13.2512 7.37239 12.3861 7.41665 11.923H7.42298Z" fill="#F27E04"/>
			<path d="M6.96782 10.8308H6.88561C6.68007 10.9764 6.5073 11.197 6.38606 11.4687C6.23312 11.7647 6.11963 12.0961 6.05093 12.4473C6.00313 12.6927 5.97555 12.9448 5.96872 13.1987C5.98985 13.4892 5.98985 13.782 5.96872 14.0725C5.96803 14.1164 5.9603 14.1595 5.94609 14.1988C5.93187 14.2381 5.91152 14.2725 5.88652 14.2997H5.84227V14.3608C5.79092 14.5662 5.76318 14.7814 5.76006 14.9987C5.72485 15.1084 5.70964 15.2284 5.7158 15.3482C5.77762 15.5232 5.88 15.6647 6.00666 15.7501H6.03196C6.07622 15.689 6.07623 15.6889 6.07623 15.6365C6.07085 15.1348 6.08563 14.6331 6.1205 14.1336C6.11079 13.4912 6.16611 12.8501 6.28489 12.2288C6.40918 11.7358 6.64397 11.3104 6.95516 11.0143C6.97986 10.9856 6.99569 10.945 6.99942 10.9007L6.96782 10.8308Z" fill="#1B2747"/>
			<path fill-rule="evenodd" clip-rule="evenodd" d="M14.2521 4.9416C14.3343 5.11636 14.2963 5.34354 14.3343 5.51829C14.3396 5.56185 14.3552 5.60177 14.3785 5.63189C14.3855 5.6463 14.3949 5.65813 14.4059 5.66631C14.4169 5.67449 14.4292 5.67878 14.4418 5.67878C14.4543 5.67878 14.4666 5.67449 14.4777 5.66631C14.4887 5.65813 14.4981 5.6463 14.505 5.63189C14.5493 5.63189 14.6315 5.57072 14.6694 5.57072C14.7073 5.57072 14.8338 5.68431 14.7959 5.7979C14.4333 6.53642 13.9269 7.11805 13.3352 7.47553C13.2104 7.58586 13.066 7.64634 12.9179 7.65028C12.8357 7.71145 12.7914 7.71145 12.7534 7.65028C12.7115 7.61558 12.6801 7.56106 12.665 7.49681C12.6498 7.43256 12.6521 7.36293 12.6712 7.30078C13.1544 6.57705 13.536 5.73561 13.7968 4.81928L13.8411 4.75812C13.8411 4.64453 13.9675 4.58336 14.0497 4.64453C14.1385 4.70985 14.2111 4.81023 14.2584 4.93287L14.2521 4.9416Z" fill="#E31145"/>
			<path d="M14.2521 4.47848C14.6252 4.19013 14.6695 3.49987 15.0046 3.15036C15.0401 3.11284 15.0816 3.08769 15.1256 3.07705C15.1697 3.0664 15.2149 3.07056 15.2575 3.08919C15.2825 3.11631 15.3029 3.15074 15.3171 3.19003C15.3313 3.22931 15.339 3.27246 15.3397 3.31637C15.3545 3.38368 15.3582 3.45472 15.3505 3.52426C15.3429 3.5938 15.3241 3.6601 15.2955 3.7183C15.2225 4.06156 15.0951 4.37799 14.9224 4.64449C14.8402 4.87167 14.6695 5.04642 14.6695 5.28234V5.39593C14.6252 5.38494 14.5825 5.3643 14.543 5.33477C14.4608 5.1076 14.4608 4.93284 14.3343 4.75809C14.3343 4.69692 14.2901 4.6445 14.2521 4.58334V4.46974V4.47848Z" fill="#1B2747"/>
			<path d="M16.1496 3.72703C16.1881 3.81644 16.2159 3.91379 16.2319 4.01538C16.1992 4.11885 16.1566 4.21582 16.1053 4.30372C16.0274 4.4987 15.9111 4.65926 15.7699 4.76682L15.7256 4.82799C15.6813 4.82799 15.6813 4.76682 15.6434 4.76682C15.5206 4.55107 15.4478 4.28917 15.4345 4.01538C15.4443 3.75016 15.5008 3.49223 15.5991 3.26394C15.6434 3.20277 15.6434 3.15036 15.6813 3.15036C15.7043 3.12328 15.7334 3.1084 15.7636 3.1084C15.7938 3.1084 15.8229 3.12328 15.8459 3.15036C15.9548 3.33056 16.0523 3.52351 16.137 3.72703H16.1496Z" fill="#1B2747"/>
			<path d="M16.364 4.47841C16.3766 4.46267 16.3918 4.45155 16.4083 4.44605C16.4247 4.44055 16.4419 4.44085 16.4583 4.44694C16.4747 4.45303 16.4897 4.4647 16.5019 4.48089C16.5142 4.49707 16.5233 4.51726 16.5284 4.53958C16.5715 4.60238 16.6001 4.68145 16.6106 4.76675C16.5664 4.82791 16.5284 4.9415 16.4842 4.99393C16.2312 5.34343 15.8518 5.57062 15.6052 5.92013C15.454 6.13575 15.3146 6.36646 15.1879 6.6104C14.897 6.9599 14.6061 7.30067 14.3089 7.58901C14.0672 7.80313 13.8159 7.99575 13.5565 8.1657C13.3505 8.25384 13.1301 8.25384 12.9241 8.1657C12.9028 8.16366 12.8828 8.15104 12.8677 8.13017C12.8525 8.10929 12.8434 8.08156 12.8419 8.05211C12.8419 7.99094 12.8862 7.99095 12.9241 7.99095C13.5178 7.84352 14.0685 7.46454 14.5113 6.89874C14.9131 6.33109 15.3351 5.79158 15.776 5.28227C15.9774 5.04184 16.1597 4.77236 16.3197 4.47841H16.364Z" fill="#1B2747"/>
			<path d="M15.2764 4.42615C15.15 4.42615 14.9413 5.11643 15.0235 5.46593C15.0235 5.5271 15.0235 5.57953 15.0678 5.57953H15.112C15.1809 5.53404 15.2423 5.46945 15.2923 5.38978C15.3423 5.31011 15.38 5.21707 15.4029 5.11643C15.4472 4.94168 15.4471 4.36499 15.2764 4.42615Z" fill="#1B2747"/>
			<path d="M12.2289 13.1988C12.2732 13.0852 12.3554 13.0852 12.3554 13.1376C12.5309 13.4866 12.6575 13.8777 12.7288 14.291C12.75 14.3333 12.7614 14.3836 12.7614 14.4351C12.7614 14.4867 12.75 14.5369 12.7288 14.5793C12.7288 14.6405 12.6845 14.6405 12.6465 14.6929C12.4623 14.8956 12.2451 15.0336 12.0137 15.0948C11.9694 15.0948 11.9694 15.0948 11.9694 15.0337C11.8875 14.7234 11.8678 14.3883 11.9124 14.0638C11.9569 13.7393 12.0641 13.4374 12.2225 13.19L12.2289 13.1988Z" fill="#1B2747"/>
			<path fill-rule="evenodd" clip-rule="evenodd" d="M12.2286 12.2725L12.2729 12.622C12.2757 12.6539 12.2731 12.6862 12.2655 12.7165C12.2578 12.7468 12.2452 12.7743 12.2286 12.7968C12.066 12.971 11.9484 13.2131 11.8935 13.487C11.8024 13.8577 11.7743 14.2523 11.8113 14.6404V14.9288C11.7794 15.0145 11.7366 15.0914 11.6848 15.1559C11.5204 15.3307 10.9323 15.3831 10.7679 14.8676C10.7237 14.8064 10.7237 14.754 10.7237 14.6404C10.7237 14.5268 10.8881 13.9502 10.9323 13.6618C10.9766 13.3735 10.9766 13.0851 10.9766 12.9104C10.9781 12.8809 10.9872 12.8532 11.0023 12.8323C11.0174 12.8114 11.0375 12.7988 11.0588 12.7968L12.0642 12.1589C12.1464 12.0978 12.2286 12.1589 12.2286 12.2725Z" fill="#E10585"/>
			<path fill-rule="evenodd" clip-rule="evenodd" d="M3.16742 13.4259C3.08522 13.7142 2.95876 13.9414 2.87655 14.2297C2.83269 14.3575 2.81368 14.4988 2.82144 14.6398C2.8292 14.7808 2.86345 14.9165 2.9208 15.0336C3.00301 15.2083 3.12949 15.2608 3.21169 15.3831C3.38275 15.5512 3.52518 15.7689 3.62903 16.0209C3.74327 16.3662 3.88311 16.6942 4.04635 16.9996C4.29203 17.2822 4.60608 17.4258 4.9253 17.4015C5.26569 17.363 5.60129 17.2662 5.92437 17.1132C5.96863 17.052 6.05084 16.9384 6.00658 16.8248C5.8321 16.5657 5.61529 16.3679 5.37425 16.2481C5.37425 16.187 5.32998 16.187 5.29204 16.187C5.2541 16.187 5.16558 16.187 5.08338 16.187C4.92138 16.2185 4.75641 16.2038 4.59869 16.1437C4.44098 16.0836 4.29387 15.9793 4.16649 15.8374C3.91607 15.5589 3.71676 15.2027 3.58476 14.7977C3.463 14.3661 3.36575 13.922 3.29389 13.4696L3.21169 13.356L3.16742 13.4171V13.4259Z" fill="#E10585"/>
			<path d="M3.667 13.3647C3.5848 13.4259 3.58479 13.4783 3.58479 13.5395C3.58706 14.0833 3.71809 14.6111 3.95787 15.0424C4.06575 15.3239 4.22485 15.5618 4.41947 15.7327C4.60113 15.9234 4.82367 16.0249 5.0518 16.021C5.09607 16.021 5.13399 15.9598 5.17826 15.9074C5.17294 15.8638 5.15738 15.8239 5.13399 15.7938C4.88106 15.4443 4.63447 15.156 4.38153 14.8152C4.15321 14.4772 3.96919 14.087 3.83772 13.6618C3.79346 13.5482 3.71125 13.3123 3.67331 13.3735L3.667 13.3647Z" fill="#1B2747"/>
			<path d="M16.8193 11.0582C16.8193 10.9446 16.7371 10.8834 16.6549 10.9446C16.4261 11.147 16.1702 11.2837 15.9024 11.3465C15.7725 11.3303 15.6422 11.37 15.5293 11.4601C15.4029 11.5213 15.3649 11.6873 15.2764 11.8096C15.0596 12.1493 14.8649 12.5147 14.6947 12.9018C14.6504 12.963 14.6504 13.0766 14.7769 13.0766C15.0378 13.0137 15.2884 12.8864 15.5167 12.7008C15.6601 12.5276 15.8147 12.3726 15.9783 12.2377C16.187 12.063 16.4399 12.063 16.6486 11.8882C16.8572 11.7135 16.813 11.3727 16.813 11.0844L16.8193 11.0582Z" fill="#F27E04"/>
			<path d="M12.8989 12.2726C12.8546 12.3337 12.9432 12.4473 12.9811 12.4997C13.338 12.8016 13.7363 12.9979 14.1509 13.0764C14.1672 13.0993 14.1871 13.1167 14.209 13.1273C14.2309 13.1379 14.2543 13.1415 14.2774 13.1376C14.3216 13.0764 14.3596 13.0764 14.4038 13.024C14.7769 12.5609 14.8212 11.757 15.1942 11.3464C15.3207 11.2852 15.4472 11.2328 15.6116 11.1716C15.797 11.0912 15.9786 10.9949 16.1554 10.8833C16.219 10.8124 16.2892 10.7537 16.3641 10.7085C16.3723 10.6865 16.3766 10.6622 16.3767 10.6374C16.3768 10.6127 16.3727 10.5882 16.3647 10.5661C16.3567 10.544 16.345 10.5247 16.3306 10.51C16.3162 10.4953 16.2995 10.4855 16.2819 10.4814C16.2819 10.5425 16.2376 10.5425 16.1996 10.5425C15.9704 10.5407 15.7433 10.4815 15.5294 10.3678C15.478 10.3098 15.4174 10.2693 15.3526 10.2496C15.2878 10.2298 15.2206 10.2314 15.1563 10.2542C15.0943 10.2982 15.0386 10.3574 14.9919 10.4289C14.7832 10.7173 14.6568 11.0668 14.4481 11.3551C14.2994 11.6654 14.075 11.8918 13.8158 11.993C13.5024 12.034 13.1942 12.1309 12.8989 12.2813V12.2726Z" fill="#1B2747"/>
			<path d="M15.8582 13.3646C15.776 13.3035 15.9025 12.7268 15.9848 12.4909C16.08 12.362 16.1945 12.2636 16.3202 12.2025C16.3645 12.1414 16.4468 12.2637 16.4025 12.3161C16.2243 12.6075 16.0831 12.9383 15.9848 13.2947C15.9405 13.2947 15.9405 13.3559 15.8582 13.3559V13.3646Z" fill="#1B2747"/>
			<path fill-rule="evenodd" clip-rule="evenodd" d="M22.7508 22.9499V9.44152L26.5953 16.4841H27.3415L31.1418 9.44152V22.9499H32.3559V6.84644H31.1861L26.9684 14.6404L22.7508 6.84644H21.4988V22.9499H22.7508Z" fill="#1B2747"/>
			<path fill-rule="evenodd" clip-rule="evenodd" d="M40.9617 8.86484L43.5922 16.9996H38.2806L40.9617 8.86484ZM36.4532 22.9412L37.8759 18.4937H44.0159L45.4386 22.9412H46.7728L41.5498 6.72412H40.38L35.1569 22.9412H36.4532Z" fill="#1B2747"/>
			<path fill-rule="evenodd" clip-rule="evenodd" d="M50.7754 8.40183H54.7212C56.3083 8.40183 57.2505 9.44161 57.2505 11.2853C57.2505 13.1289 56.3336 14.1687 54.7212 14.1687H50.7944L50.7754 8.40183ZM50.7754 22.9413V15.724H54.3671L58.003 22.9413H59.4636L55.7076 15.558C56.4816 15.4459 57.1962 14.9331 57.7077 14.1225C58.2191 13.312 58.4896 12.264 58.4645 11.1891C58.4645 8.56784 57.0418 6.82031 54.7907 6.82031H49.5677V22.9238L50.7754 22.9413Z" fill="#1B2747"/>
			<path fill-rule="evenodd" clip-rule="evenodd" d="M62.7961 6.84644V22.9499H64.0545V14.754L70.2323 22.9499H71.9839L65.3444 14.2298L71.067 6.84644H69.4419L64.0545 13.8278V6.84644H62.7961Z" fill="#1B2747"/>
			<path d="M75.8284 6.84644H74.5764V22.9499H75.8284V6.84644Z" fill="#1B2747"/>
			<path fill-rule="evenodd" clip-rule="evenodd" d="M83.3468 23.2382C84.4299 23.2862 85.4964 22.8612 86.3947 22.0236C86.7944 21.6464 87.1195 21.137 87.3403 20.5419C87.5612 19.9467 87.6709 19.2846 87.6593 18.616C87.6726 18.104 87.6093 17.5937 87.4733 17.1171C87.3373 16.6405 87.1315 16.2078 86.8689 15.8461C86.6047 15.4658 86.2944 15.1524 85.952 14.9199C85.628 14.6992 85.2943 14.5066 84.9529 14.3432C84.5734 14.129 84.1823 13.9567 83.7831 13.8277L83.1129 13.5394L82.3604 13.251L81.8165 12.9627C81.6181 12.9062 81.4319 12.7865 81.2728 12.6132C81.042 12.423 80.8512 12.1529 80.7193 11.8295C80.5873 11.5062 80.5187 11.1408 80.5203 10.7695C80.5203 9.32782 81.4371 8.14824 83.3152 8.14824C84.5949 8.13545 85.8473 8.65949 86.9068 9.65112V7.90359C85.8087 6.99938 84.549 6.53924 83.2709 6.57547C82.2176 6.50044 81.1757 6.90567 80.3053 7.72883C79.9737 8.08053 79.7064 8.535 79.5252 9.05558C79.344 9.57615 79.2538 10.1483 79.2619 10.7259C79.2609 11.6892 79.5125 12.6204 79.9702 13.3472C80.236 13.6678 80.5316 13.9381 80.8491 14.151C81.2222 14.3782 81.6016 14.553 81.8924 14.7277C82.1833 14.9025 82.6007 15.016 83.1065 15.2432C83.4051 15.3311 83.6988 15.4479 83.9855 15.5927L84.7379 15.9422C84.9847 16.0631 85.222 16.2183 85.4462 16.4053C85.7439 16.6013 85.9935 16.9134 86.1643 17.3031C86.3351 17.6928 86.4196 18.1432 86.4073 18.5985C86.4073 20.4421 85.0731 21.6567 83.2456 21.6567C82.4316 21.6455 81.6259 21.4294 80.8681 21.0188C80.1924 20.7089 79.5673 20.2191 79.028 19.5771V21.5431C80.3213 22.6923 81.835 23.2768 83.3721 23.2207L83.3468 23.2382Z" fill="#1B2747"/>
		</symbol>
		<symbol id="brand4-2">
				<g clip-path="url(#clip0_0_573)">
				<path fill-rule="evenodd" clip-rule="evenodd" d="M12.9317 26.4838C12.3233 27.2375 11.8602 28.1 11.5665 29.0264V29.2012C11.5386 29.244 11.5237 29.2941 11.5237 29.3453C11.5237 29.3966 11.5386 29.4467 11.5665 29.4895L11.7911 29.8914C11.8006 29.9059 11.8134 29.9177 11.8285 29.9259C11.8436 29.934 11.8604 29.9383 11.8775 29.9383C11.8946 29.9383 11.9115 29.934 11.9265 29.9259C11.9416 29.9177 11.9545 29.9059 11.9639 29.8914C12.0244 29.7778 12.0762 29.6031 12.1367 29.4895C12.5241 28.8953 13.0058 28.3697 13.5624 27.9342C13.8476 27.6459 13.3896 26.8944 13.2168 26.5449C13.2028 26.5212 13.1841 26.5006 13.1618 26.4845C13.1395 26.4684 13.1142 26.4571 13.0874 26.4514C13.0607 26.4457 13.033 26.4456 13.0062 26.4511C12.9794 26.4567 12.954 26.4678 12.9317 26.4838Z" fill="#141B53"/>
				<path fill-rule="evenodd" clip-rule="evenodd" d="M13.0699 20.8304C13.1304 20.8304 13.1823 20.8304 13.1823 20.7692C13.2108 20.3853 13.2108 19.9997 13.1823 19.6158H13.1218C12.3135 19.1661 11.4379 18.8532 10.5296 18.6896C10.4691 18.6285 10.4173 18.6896 10.4173 18.7508C10.465 18.879 10.4856 19.016 10.4778 19.1527C10.486 19.1512 10.4946 19.1517 10.5026 19.1542C10.5107 19.1567 10.518 19.1612 10.5239 19.1672C10.5299 19.1732 10.5343 19.1806 10.5368 19.1888C10.5393 19.1969 10.5398 19.2055 10.5382 19.2139C11.5026 19.5676 12.3849 20.1178 13.1304 20.8304H13.0699Z" fill="#E31145"/>
				<path fill-rule="evenodd" clip-rule="evenodd" d="M9.06924 30.3023C9.24206 30.1275 10.037 29.9528 10.4431 29.5509C10.7417 28.9494 10.9541 28.3081 11.0739 27.6461C11.0739 26.4315 11.1344 24.5267 11.0134 23.1462C10.8924 21.7656 10.7282 20.7258 10.5554 19.7385C10.495 19.6249 10.6159 19.5637 10.7283 19.5637C11.5476 19.9604 12.2999 20.4853 12.9575 21.119C13.0699 21.1802 13.0699 21.2938 13.1304 21.3462C13.2427 23.251 12.4477 24.2908 12.8452 25.8461C12.871 25.9409 12.8912 26.0372 12.9057 26.1344C12.8452 26.248 12.7934 26.3092 12.7934 26.3616C12.1325 27.161 11.6282 28.0802 11.3072 29.0703C11.3101 29.2312 11.3485 29.3894 11.4195 29.5334C11.5318 29.7606 12.0503 30.3373 11.7046 30.512C11.3481 30.5781 10.9869 30.6161 10.6245 30.6256C10.1637 30.6463 9.7021 30.6081 9.25069 30.512C9.19021 30.512 8.96557 30.512 9.07789 30.2848L9.06924 30.3023Z" fill="#141B53"/>
				<path fill-rule="evenodd" clip-rule="evenodd" d="M13.4067 28.3361C13.4067 28.3361 13.4672 28.3973 13.4067 28.3973C13.2414 28.7201 13.1443 29.0742 13.1216 29.4371C13.0811 29.8406 13.0609 30.246 13.0611 30.6516H12.776C12.7457 30.1919 12.7457 29.7307 12.776 29.2711C12.7605 29.1853 12.7684 29.0968 12.7989 29.0153C12.8293 28.9337 12.8811 28.862 12.9488 28.8079C13.0864 28.6391 13.2398 28.4841 13.4067 28.3449V28.3361Z" fill="#141B53"/>
				<path fill-rule="evenodd" clip-rule="evenodd" d="M16.552 4.32514C16.3352 4.42924 16.1246 4.54594 15.9212 4.67464C15.8089 4.67464 15.7484 4.61347 15.8089 4.56105L16.8371 2.3679C16.8727 2.28731 16.932 2.21981 17.007 2.17462C17.0819 2.12943 17.1689 2.10877 17.2559 2.11546C17.3429 2.12216 17.4258 2.15588 17.4931 2.21202C17.5604 2.26815 17.609 2.34397 17.6321 2.42907C17.6403 2.42751 17.6489 2.428 17.6569 2.43052C17.665 2.43304 17.6723 2.4375 17.6782 2.44352C17.6842 2.44955 17.6886 2.45696 17.6911 2.4651C17.6936 2.47323 17.6941 2.48185 17.6925 2.49023C17.753 2.60382 17.8049 2.83973 17.8653 2.95332C17.8943 2.99569 17.9099 3.04599 17.9099 3.0975C17.9099 3.14902 17.8943 3.1993 17.8653 3.24167C17.5381 3.72362 17.0828 4.10224 16.552 4.33387V4.32514Z" fill="#00A3D3"/>
				<path fill-rule="evenodd" clip-rule="evenodd" d="M9.92451 0.401937C9.985 0.4631 9.41472 0.978621 9.06045 1.2058H8.94814C8.88766 1.26696 8.88765 1.2058 8.83581 1.2058C8.66496 1.14529 8.47964 1.14058 8.306 1.19232C8.13236 1.24406 7.97917 1.34963 7.86806 1.49414C7.65957 1.75177 7.50387 2.0488 7.41008 2.36791C7.25161 2.80224 7.11889 3.24573 7.01262 3.69604C6.94551 4.10982 6.78916 4.50358 6.55467 4.8494H6.38187C6.10826 4.56603 5.81982 4.2977 5.51781 4.04554V3.98438C5.45733 3.92322 5.51779 3.87079 5.57827 3.87079C5.75109 3.69603 5.97575 3.52128 6.20905 3.2941C6.43259 2.94892 6.62353 2.58324 6.77934 2.20189C6.89166 1.85239 7.06447 1.56405 7.1768 1.22328C7.22998 1.07803 7.30584 0.942329 7.40146 0.821341C7.51655 0.694819 7.65934 0.597315 7.81838 0.536623C7.97743 0.475931 8.14832 0.453743 8.31737 0.47184C8.8102 0.40518 9.30642 0.36725 9.80356 0.358246C9.80356 0.358246 9.91589 0.358252 9.91589 0.419416L9.92451 0.401937Z" fill="#00A3D3"/>
				<path d="M5.6475 3.57368C5.58702 3.63485 5.53517 3.57368 5.53517 3.51251C5.62026 3.19198 5.62026 2.85443 5.53517 2.5339C5.49316 2.3063 5.4729 2.07514 5.47468 1.84362C5.4142 1.78246 5.47468 1.78246 5.47468 1.73004C5.58701 1.66888 5.6475 1.73003 5.69935 1.84362C5.71375 2.05973 5.75142 2.27362 5.81168 2.48148C5.81302 2.58824 5.85298 2.69082 5.92401 2.76982C5.9845 2.83099 5.98447 2.83098 6.03632 2.83098C6.07529 2.85323 6.1068 2.88674 6.12682 2.92721C6.14683 2.96769 6.15443 3.01329 6.14865 3.05817C6.088 3.1648 6.01234 3.26192 5.92401 3.3465C5.81168 3.46009 5.75118 3.57368 5.63886 3.57368H5.6475Z" fill="#1B2747"/>
				<path d="M7.30659 3.46022H7.24612L7.64359 2.36801C7.75591 1.96608 8.27435 1.15347 8.67182 1.32823C9.06929 1.50298 7.59175 2.88353 7.29797 3.46022H7.30659Z" fill="#1B2747"/>
				<path d="M9.41481 3.40768V3.21545L9.24201 2.17567C9.18152 2.1145 9.18152 2.06207 9.12968 2.06207H9.06919C8.95292 2.221 8.85712 2.39424 8.78406 2.5776C8.66285 3.09184 8.68375 3.62988 8.84452 4.13291C8.905 4.13291 8.90501 4.24649 8.95685 4.19406C9.0087 4.14164 9.41481 3.73097 9.41481 3.3902V3.40768Z" fill="#1B2747"/>
				<path d="M10.901 1.84352C10.8927 1.84508 10.8842 1.84459 10.8761 1.84207C10.8681 1.83955 10.8608 1.83509 10.8548 1.82907C10.8488 1.82304 10.8444 1.81565 10.8419 1.80751C10.8394 1.79937 10.8389 1.79074 10.8405 1.78236H10.78C10.7701 1.3231 10.8678 0.867975 11.0651 0.454236C11.1256 0.393072 11.238 0.393078 11.238 0.515406C11.2188 0.965922 11.1433 1.41216 11.0133 1.84352C11.0133 1.90468 10.901 1.90468 10.901 1.84352Z" fill="#1B2747"/>
				<path d="M12.9314 0.594184C12.9288 0.563679 12.9328 0.532963 12.9431 0.504189C12.9535 0.475415 12.97 0.449285 12.9914 0.427633C13.0128 0.405981 13.0387 0.389322 13.0671 0.378849C13.0956 0.368376 13.1259 0.364341 13.1561 0.36701L13.6141 0.48059C13.7264 0.48059 13.7869 0.480597 13.8387 0.54176C13.8945 0.592179 13.9388 0.65421 13.9686 0.72359C13.9985 0.79297 14.0131 0.868048 14.0115 0.943685C14.0199 1.06344 13.9992 1.18345 13.951 1.2932C13.8859 1.49986 13.8481 1.71434 13.8387 1.93104C13.8387 1.99221 13.8387 2.04464 13.7782 2.04464C13.7177 2.04464 13.7177 2.04464 13.6659 2.04464C13.394 1.93526 13.1701 1.73055 13.0351 1.46795C12.9331 1.18897 12.8947 0.890277 12.9228 0.594184H12.9314Z" fill="#1B2747"/>
				<path d="M11.4711 0.227174C11.4106 0.113585 11.5834 0 11.6957 0C11.8798 0.0767768 12.0708 0.1353 12.266 0.17475C12.3265 0.235914 12.3265 0.235907 12.3783 0.235907C12.4316 0.321753 12.453 0.423927 12.4388 0.524251C12.4114 0.84316 12.4712 1.16354 12.6116 1.45044C12.7565 1.6835 12.9515 1.8806 13.1819 2.02713C13.2942 2.14072 13.4671 2.20188 13.5275 2.37663V2.4378H13.467C13.3181 2.50561 13.1652 2.56398 13.0091 2.61255C12.8498 2.71638 12.7143 2.85342 12.6116 3.01449C12.4993 3.18924 12.4388 3.41641 12.3265 3.59116C12.2141 3.76592 12.2142 3.81835 12.0413 3.81835C11.8685 3.81835 11.8167 3.75719 11.6957 3.6436C11.5518 3.41502 11.4548 3.15946 11.4106 2.89216L11.2378 2.54265C11.1773 2.54265 11.1773 2.48149 11.2378 2.42907C11.453 1.71974 11.5293 0.974775 11.4624 0.235907L11.4711 0.227174Z" fill="#F27E04"/>
				<path d="M14.7807 0.926205C14.8411 0.926205 14.893 0.926198 14.893 0.987362C14.9249 1.01747 14.9462 1.0574 14.9535 1.10096C14.9435 1.29764 14.9057 1.49186 14.8411 1.67764C14.7713 1.95409 14.6759 2.22324 14.556 2.48151L14.4955 2.54266C14.435 2.60383 14.3832 2.54266 14.3227 2.54266C14.2622 2.54266 14.2104 2.48151 14.1499 2.48151L14.0894 2.42034V2.3417C14.1499 1.99219 14.2017 1.59026 14.2622 1.24949C14.2622 1.1359 14.3227 1.02232 14.3227 0.899993C14.3227 0.777666 14.4955 0.725236 14.5473 0.786399C14.5992 0.847563 14.7202 0.847567 14.772 0.899993L14.7807 0.926205Z" fill="#1B2747"/>
				<path fill-rule="evenodd" clip-rule="evenodd" d="M13.6919 18.9433C13.878 18.992 14.0702 19.0127 14.2622 19.0044L14.893 18.8297C14.9773 18.8151 15.0555 18.7756 15.1176 18.7161C15.3423 18.6025 15.4633 18.3141 15.5756 18.1394C15.6879 17.9646 16.2064 18.0258 16.4915 17.851C16.6038 17.7899 16.6038 17.6239 16.6643 17.5627C16.7248 17.5015 16.6643 17.5015 16.7248 17.4491H16.8371C17.0618 17.3879 17.2951 17.388 17.4679 17.3355C17.61 17.3191 17.7528 17.3599 17.8654 17.4491C17.8692 17.481 17.8657 17.5133 17.8552 17.5436C17.8447 17.5739 17.8275 17.6014 17.8049 17.6239C17.4074 19.0656 14.7202 19.5287 14.435 19.5898C14.3479 19.6379 14.2488 19.6591 14.1499 19.651C14.0376 19.651 13.9771 19.5898 13.8647 19.5374C13.7524 19.485 13.7524 19.3627 13.6919 19.3102C13.6315 19.2578 13.6315 18.9083 13.6919 18.9607V18.9433Z" fill="#00A3D3"/>
				<path d="M13.5795 18.6375C13.5191 18.5764 13.5795 18.4103 13.64 18.4103C14.2287 18.4481 14.8128 18.285 15.299 17.9472C15.4113 17.8337 15.299 17.5977 15.4718 17.5977C15.7591 17.6274 16.0486 17.6274 16.3359 17.5977C16.379 17.6051 16.4185 17.6266 16.4482 17.6589C16.3878 17.7201 16.3877 17.7725 16.3359 17.7725C16.111 17.8248 15.883 17.8628 15.6533 17.8861C15.4805 17.9472 15.4286 18.1744 15.2558 18.4016C15.083 18.6288 14.4609 18.8035 14.2881 18.8647C14.1153 18.9259 13.7178 18.8647 13.6055 18.6375H13.5795Z" fill="#1B2747"/>
				<path d="M14.098 19.9655C14.0965 19.9572 14.097 19.9485 14.0994 19.9404C14.1019 19.9323 14.1064 19.9249 14.1123 19.9188C14.1183 19.9128 14.1256 19.9084 14.1336 19.9058C14.1417 19.9033 14.1502 19.9028 14.1585 19.9044C15.026 19.7415 15.8705 19.4716 16.6729 19.1005C17.2786 18.8098 17.7494 18.293 17.9863 17.6588C17.9863 17.5452 18.0986 17.72 18.0986 17.72C18.1129 17.7295 18.1246 17.7425 18.1327 17.7578C18.1408 17.773 18.145 17.79 18.145 17.8073C18.145 17.8246 18.1408 17.8417 18.1327 17.8569C18.1246 17.8722 18.1129 17.8852 18.0986 17.8947C17.8565 18.493 17.4126 18.9852 16.8457 19.284C16.181 19.5892 15.4934 19.8405 14.7893 20.0354C14.3918 20.2102 14.219 20.0966 14.1066 19.9743L14.098 19.9655Z" fill="#1B2747"/>
				<path d="M13.4068 16.4442C13.5191 16.5053 13.8647 16.5053 13.977 16.5578C14.0894 16.6102 14.0894 16.7849 13.977 16.9073C13.6754 17.1664 13.3259 17.3624 12.9488 17.484C12.5844 17.6204 12.1963 17.6799 11.8083 17.6587C11.7478 17.5975 11.6354 17.3704 11.9206 17.1956C12.3442 16.9492 12.7121 16.6159 13.0006 16.217C12.9991 16.2086 12.9996 16.2 13.0021 16.1919C13.0046 16.1837 13.009 16.1763 13.015 16.1703C13.0209 16.1643 13.0282 16.1598 13.0363 16.1573C13.0443 16.1548 13.0529 16.1543 13.0611 16.1558C13.0611 16.0947 13.1735 16.0947 13.1735 16.1558C13.2179 16.2727 13.2962 16.3732 13.3981 16.4442H13.4068Z" fill="#1B2747"/>
				<path d="M16.3878 16.0948V16.1559C16.3894 16.1643 16.3888 16.1729 16.3864 16.1811C16.3839 16.1892 16.3795 16.1966 16.3735 16.2026C16.3676 16.2087 16.3602 16.2131 16.3522 16.2156C16.3441 16.2182 16.3356 16.2187 16.3273 16.2171C15.9801 16.4851 15.5958 16.7 15.1867 16.8549C15.1867 16.9161 15.1263 16.9161 15.0744 16.9161C15.0226 16.9161 14.9621 16.6278 15.0139 16.5666C15.0658 16.5054 15.1868 16.3918 15.2386 16.3394C15.5628 16.2388 15.8589 16.0622 16.1027 15.8239C16.1632 15.7627 16.2755 15.7627 16.2755 15.8239C16.2755 15.8851 16.3878 15.9986 16.3878 16.1122V16.0948Z" fill="#1B2747"/>
				<path d="M14.8325 16.619C14.6078 16.7938 14.3745 17.0821 14.1499 17.2569C13.4853 17.7344 12.6835 17.977 11.8687 17.9471C11.7564 18.0083 11.7564 17.7724 11.8687 17.7724C12.3528 17.7722 12.8338 17.6955 13.2945 17.5452C13.8647 17.318 14.2622 16.7413 14.8325 16.5666C14.8325 16.5054 14.893 16.5054 14.893 16.5666L14.8325 16.619Z" fill="#1B2747"/>
				<path d="M2.68387 16.3831C2.74982 16.6699 2.78743 16.9626 2.79617 17.2569C2.78195 17.3572 2.80339 17.4594 2.85667 17.5452C2.91715 17.5452 2.91715 17.6064 2.969 17.6064H3.08133C3.08133 17.5452 3.08134 17.5452 3.14182 17.5452C3.14182 17.3704 3.20229 17.2569 3.20229 17.0821V16.8549C3.20229 16.7938 3.20231 16.7938 3.14182 16.7413C3.05415 16.5812 2.91338 16.4574 2.74433 16.3918C2.74433 16.3918 2.68387 16.3307 2.68387 16.3918V16.3831Z" fill="#1B2747"/>
				<path d="M8.95685 20.3675C8.97241 20.3501 8.98342 20.3291 8.98886 20.3064C8.9943 20.2836 8.99399 20.2598 8.98796 20.2372C8.98194 20.2146 8.9704 20.1939 8.9544 20.1769C8.93839 20.16 8.91843 20.1474 8.89636 20.1403C8.78403 20.1403 8.55074 20.0791 8.4989 20.0791C8.26444 20.0519 8.02695 20.0735 7.80106 20.1426C7.57518 20.2118 7.36571 20.3269 7.18553 20.4811C7.12504 20.4811 7.18554 20.5947 7.24602 20.5947C7.26827 20.5718 7.29543 20.5543 7.32539 20.5437C7.35535 20.5331 7.3873 20.5296 7.41882 20.5335C7.71766 20.4555 8.02832 20.4347 8.33472 20.4723C8.55938 20.4723 8.73219 20.5335 8.90501 20.4112C8.91329 20.4127 8.92183 20.4122 8.92987 20.4097C8.93792 20.4072 8.94522 20.4027 8.95118 20.3967C8.95714 20.3907 8.96156 20.3833 8.96405 20.3752C8.96654 20.367 8.96705 20.3584 8.9655 20.35L8.95685 20.3675Z" fill="#1B2747"/>
				<path d="M10.5555 18.0695C10.6678 18.0083 10.6678 17.8423 10.495 17.7811C10.1322 17.6384 9.73771 17.5991 9.35441 17.6675C9.12421 17.9505 8.96688 18.2867 8.89646 18.6461C8.82805 18.9997 8.73273 19.3473 8.61133 19.6859C8.55085 19.7471 8.61133 19.7995 8.72366 19.8607C8.84208 19.8522 8.96075 19.8732 9.06928 19.9218C9.12977 19.9218 9.18161 19.9218 9.18161 19.8607C9.29394 19.6335 9.40627 19.3452 9.52723 19.1092C9.58219 18.936 9.67089 18.7756 9.78813 18.6375C9.90537 18.4994 10.0488 18.3865 10.2099 18.3054C10.272 18.2459 10.3501 18.2063 10.4345 18.1918H10.495C10.495 18.1306 10.5555 18.1306 10.5555 18.0782V18.0695Z" fill="#1B2747"/>
				<path fill-rule="evenodd" clip-rule="evenodd" d="M8.1619 18.349C7.98909 18.5237 7.87676 18.7509 7.70395 18.9257C7.4189 19.0636 7.15187 19.2368 6.909 19.4412C6.81912 19.572 6.77612 19.7299 6.78712 19.8888C6.79812 20.0477 6.86246 20.1981 6.96949 20.315C6.96949 20.3761 7.02998 20.3761 7.08182 20.315C7.16995 20.1898 7.28916 20.0903 7.42744 20.0266H7.48793V19.9654C7.76033 19.8455 8.05494 19.7859 8.35199 19.7907C8.41248 19.7907 8.41246 19.7907 8.4643 19.7295C8.5099 19.6073 8.56782 19.4902 8.63712 19.38V19.3188V19.2577V19.1441L8.69761 19.0829V18.8558C8.74675 18.6179 8.82209 18.3864 8.92225 18.1655C8.97406 17.9879 9.07263 17.8278 9.20741 17.7024C8.83777 17.8671 8.49188 18.0817 8.17917 18.3402L8.1619 18.349Z" fill="#754090"/>
				<path d="M7.59153 17.8859C7.59981 17.8843 7.60835 17.8848 7.61639 17.8873C7.62444 17.8899 7.63174 17.8943 7.6377 17.9003C7.64366 17.9064 7.64808 17.9138 7.65057 17.9219C7.65306 17.93 7.65357 17.9387 7.65202 17.947C7.66376 18.1413 7.64331 18.3362 7.59153 18.5237C7.55586 18.6315 7.49593 18.7294 7.41646 18.8098C7.33699 18.8902 7.24015 18.9508 7.13358 18.9868C7.24736 18.6458 7.34254 18.2986 7.4187 17.947C7.4187 17.8859 7.41871 17.8859 7.4792 17.8859V17.8247C7.53968 17.8247 7.53968 17.8247 7.59153 17.8859Z" fill="#1B2747"/>
				<path fill-rule="evenodd" clip-rule="evenodd" d="M3.53918 31.9099C3.59093 31.8636 3.64915 31.8254 3.71198 31.7963C3.89202 31.7743 4.06562 31.7148 4.2218 31.6216C4.33413 31.6216 4.44645 31.5604 4.56742 31.5604C4.68839 31.5604 4.67973 31.4992 4.79206 31.4992C4.90439 31.4992 4.9044 31.4381 4.96488 31.3857C5.06379 31.3938 5.16288 31.3725 5.25001 31.3245C5.32964 31.331 5.40903 31.3094 5.47468 31.2633C5.57355 31.2709 5.67253 31.2497 5.75983 31.2022H5.87214C5.89439 31.1793 5.92155 31.1618 5.95151 31.1512C5.98147 31.1406 6.01345 31.1371 6.04496 31.141C6.13874 31.115 6.23394 31.0945 6.33009 31.0798C6.39058 31.0798 6.39058 31.0798 6.44243 31.0187H6.61525C6.72758 31.0187 6.8399 30.9575 6.96087 30.9575C7.08184 30.9575 7.02136 30.9575 7.0732 30.8963H7.24602C7.35835 30.8963 7.47068 30.8352 7.59164 30.8352C7.62316 30.839 7.65511 30.8355 7.68507 30.8249C7.71503 30.8143 7.74219 30.7969 7.76444 30.774H7.93726C8.04959 30.774 8.16192 30.7129 8.28288 30.7129C8.41815 30.7208 8.55355 30.7 8.68035 30.6517H9.02599C9.15279 30.6034 9.28819 30.5826 9.42345 30.5905C9.64811 30.5905 9.93324 30.5294 10.1665 30.5294H10.564C10.6764 30.5294 10.7887 30.4682 10.9615 30.4682H12.6896C12.7576 30.509 12.8353 30.5301 12.9143 30.5294H13.6574C13.7851 30.5739 13.9198 30.5947 14.0548 30.5905H14.2276C14.3073 30.584 14.3867 30.6057 14.4523 30.6517H14.7979C15.2612 30.6895 15.7207 30.7655 16.1718 30.8789C16.6297 30.94 17.0877 31.0536 17.4247 31.106C17.4562 31.1022 17.4882 31.1057 17.5181 31.1163C17.5481 31.1269 17.5752 31.1443 17.5975 31.1672H17.7098C17.8221 31.1672 17.8826 31.2284 17.995 31.2284C18.1073 31.2284 18.0554 31.2895 18.1073 31.2895H18.2196C18.2876 31.3303 18.3653 31.3515 18.4443 31.3507C18.7899 31.4643 19.0145 31.5255 19.2392 31.5779C19.3954 31.6711 19.569 31.7306 19.749 31.7526C19.8119 31.7817 19.8701 31.8199 19.9218 31.8662C19.8739 31.8245 19.8122 31.8027 19.749 31.8051H19.5244C19.4371 31.7575 19.3381 31.7363 19.2392 31.7439C19.2077 31.7478 19.1757 31.7442 19.1458 31.7336C19.1158 31.723 19.0887 31.7056 19.0664 31.6827H18.8417C18.7294 31.6827 18.5566 31.6216 18.3838 31.6216C18.3048 31.6223 18.2271 31.6012 18.1591 31.5604H17.9345C17.8356 31.5685 17.7365 31.5473 17.6493 31.4992H17.3642C17.2519 31.4992 17.1914 31.4381 17.079 31.4381H16.7939C16.6816 31.4381 16.5693 31.3769 16.4483 31.3769H16.1027C15.9941 31.3282 15.8755 31.3073 15.757 31.3158H15.4114C15.3509 31.3158 15.2991 31.2546 15.2386 31.2546H14.7288C14.6104 31.2631 14.4917 31.2421 14.3832 31.1934H13.6401C13.5048 31.2014 13.3694 31.1806 13.2426 31.1323H10.2184C10.1579 31.1934 10.1579 31.1934 10.1061 31.1934H9.07783C8.96931 31.2421 8.85064 31.2631 8.73221 31.2546H8.33473C8.2224 31.2546 8.11007 31.3158 7.98911 31.3158H7.64349C7.53116 31.3158 7.41883 31.3769 7.29787 31.3769C6.89521 31.3833 6.49364 31.4213 6.09681 31.4905C5.69934 31.5517 5.35371 31.5517 5.01673 31.6041C4.9044 31.6041 4.73159 31.6653 4.61926 31.6653H4.3946C4.37234 31.6881 4.34519 31.7056 4.31523 31.7162C4.28527 31.7268 4.25332 31.7303 4.2218 31.7264C4.12262 31.7128 4.02182 31.7344 3.93665 31.7876H3.71198C3.64881 31.7852 3.5871 31.8071 3.53918 31.8488V31.9099Z" fill="#141B53"/>
			</g>
			<defs>
				<clipPath id="clip0_0_573">
					<rect width="118.403" height="31.9099" fill="white" transform="translate(0.00515747)"/>
				</clipPath>
			</defs>
		</symbol>
		<symbol id="brand5">
			<path fill-rule="evenodd" clip-rule="evenodd" d="M11.2837 27.7381C11.3527 27.7361 11.4197 27.7701 11.471 27.833C11.5223 27.896 11.5542 27.9833 11.5601 28.0771C11.5601 28.1781 11.5308 28.2749 11.4785 28.3463C11.4262 28.4176 11.3553 28.4577 11.2814 28.4577C11.2074 28.4577 11.1365 28.4176 11.0842 28.3463C11.032 28.2749 11.0026 28.1781 11.0026 28.0771C11.0085 27.9833 11.0404 27.896 11.0917 27.833C11.1431 27.7701 11.21 27.7361 11.279 27.7381H11.2837Z" fill="black"/>
			<path fill-rule="evenodd" clip-rule="evenodd" d="M36.4496 27.7381C36.514 27.7441 36.5747 27.7817 36.6203 27.8441C36.666 27.9064 36.6936 27.9892 36.6979 28.0771C36.6994 28.1713 36.6745 28.2628 36.6284 28.3328C36.5823 28.4029 36.5184 28.4464 36.4496 28.4545C36.3763 28.4545 36.306 28.4148 36.2542 28.344C36.2023 28.2732 36.1732 28.1772 36.1732 28.0771C36.1792 27.9833 36.211 27.896 36.2623 27.833C36.3137 27.7701 36.3806 27.7361 36.4496 27.7381Z" fill="black"/>
			<path d="M9.42988 2.22187L11.6862 9.36057H12.8518L10.7827 2.81036L24.8262 5.00442L38.8697 7.24326L37.7275 9.35417H39.0897L40.3255 7.07056L40.8825 6.0151L39.9463 5.88717L24.9666 3.5204L9.98694 1.15362L9.0507 0.987305L9.42988 2.22187ZM25.8795 31.2756L22.0456 38.312L19.8174 31.2756H18.6096L21.4183 40.103L21.7881 41.3312L22.3545 40.231L27.237 31.2756H25.8795Z" fill="black"/>
			<path d="M34.7175 26.7979H35.429V26.2925H34.3149V29.8811H35.429V29.3565H34.7175V28.3331H35.3213V27.8277H34.7362L34.7175 26.7979ZM33.4208 26.7979C33.5753 26.7979 33.6361 26.9258 33.6361 27.1753V27.5143C33.6361 27.8085 33.5425 27.8917 33.388 27.8917H33.2335V26.7979H33.4208ZM34.0996 29.8811C34.062 29.746 34.0414 29.6033 34.0387 29.4589V28.9088C34.0387 28.5314 33.9778 28.2307 33.7625 28.1092C33.9498 28.026 34.0387 27.7702 34.0387 27.3928V27.1369C34.0387 26.5484 33.8515 26.2925 33.4536 26.2925H32.8029V29.8811H33.2335V28.4034H33.3552C33.5425 28.4034 33.6315 28.5314 33.6315 28.8704V29.4589C33.6357 29.6004 33.6466 29.7415 33.6642 29.8811H34.0996ZM31.2909 28.9919C31.2909 29.5804 31.5062 29.9194 31.9088 29.9194C31.9984 29.9288 32.0885 29.9109 32.1724 29.8671C32.2564 29.8232 32.3323 29.7544 32.3945 29.6657C32.4567 29.5771 32.5038 29.4706 32.5323 29.3541C32.5608 29.2376 32.5701 29.1139 32.5594 28.9919V27.1305C32.5673 27.011 32.556 26.8906 32.526 26.7779C32.4961 26.6651 32.4485 26.5627 32.3864 26.4778C32.3243 26.393 32.2494 26.3279 32.1668 26.287C32.0843 26.2461 31.9962 26.2306 31.9088 26.2414C31.823 26.2317 31.7367 26.2484 31.6562 26.2904C31.5758 26.3323 31.5033 26.3984 31.444 26.4837C31.3847 26.569 31.3402 26.6714 31.3137 26.7833C31.2872 26.8953 31.2794 27.0139 31.2909 27.1305V28.9919ZM31.6934 27.1305C31.6934 26.8746 31.7871 26.7531 31.9088 26.7531C32.0305 26.7531 32.1241 26.881 32.1241 27.1305V29.0495C32.1241 29.3054 32.0633 29.4269 31.9088 29.4269C31.7543 29.4269 31.6934 29.299 31.6934 29.0495V27.1305ZM29.8678 26.7915H30.2985V29.8747H30.701V26.7979H31.1692V26.2925H29.8725L29.8678 26.7915ZM28.5384 27.1305C28.5384 28.1476 29.3435 28.3139 29.3435 29.0495C29.3435 29.3054 29.2827 29.4269 29.1282 29.4269C28.9737 29.4269 28.9128 29.299 28.9128 29.0495V28.7936H28.543V29.0047C28.543 29.5932 28.7303 29.9322 29.161 29.9322C29.5916 29.9322 29.7461 29.5932 29.7461 29.0047C29.7461 27.9876 28.9409 27.8661 28.9409 27.1433C28.9409 26.8874 29.0346 26.7659 29.1563 26.7659C29.278 26.7659 29.3716 26.8938 29.3716 27.1433V27.2712H29.7414V27.1433C29.7414 26.5932 29.5542 26.2541 29.1563 26.2541C29.0705 26.2445 28.9842 26.2612 28.9037 26.3032C28.8233 26.3451 28.7508 26.4112 28.6915 26.4965C28.6322 26.5818 28.5877 26.6842 28.5612 26.7961C28.5347 26.9081 28.5269 27.0267 28.5384 27.1433V27.1305ZM26.5582 26.7915H26.9889V29.8747H27.3915V26.7979H27.8315V26.2925H26.5629L26.5582 26.7915ZM25.8467 26.7915C25.9684 26.7915 26.062 26.8746 26.062 27.1305V27.6806C26.062 27.9365 25.9684 28.0196 25.8467 28.0196H25.6594V26.7979L25.8467 26.7915ZM25.8467 26.2861H25.2288V29.8747H25.6594V28.525H25.8467C25.9325 28.5346 26.0188 28.5179 26.0992 28.4759C26.1797 28.434 26.2522 28.3679 26.3115 28.2826C26.3708 28.1973 26.4153 28.0949 26.4418 27.983C26.4683 27.8711 26.4761 27.7524 26.4646 27.6358V27.1689C26.478 27.0518 26.4715 26.9322 26.4457 26.8191C26.4198 26.706 26.3754 26.6025 26.3157 26.5166C26.256 26.4307 26.1827 26.3647 26.1013 26.3236C26.02 26.2826 25.9329 26.2676 25.8467 26.2797V26.2861ZM24.2691 26.7915H24.9807V26.2861H23.8666V29.8747H24.9807V29.3565H24.2691V28.3331H24.8262V27.8277H24.2691V26.7915ZM23.2159 28.525V29.0303C23.2159 29.2862 23.1223 29.4077 23.0005 29.4077C22.8788 29.4077 22.7852 29.2798 22.7852 29.0303V27.1113C22.7852 26.8554 22.8788 26.7339 23.0005 26.7339C23.1223 26.7339 23.2159 26.8618 23.2159 27.1113V27.4887H23.5857V27.1113C23.5857 26.5612 23.3984 26.2222 23.0005 26.2222C22.6026 26.2222 22.3826 26.5612 22.3826 27.1113V28.9727C22.3826 29.5612 22.5699 29.9003 23.0005 29.9003C23.4312 29.9003 23.5857 29.5612 23.5857 28.9727V28.5058L23.2159 28.525ZM21.6992 29.8747H22.1018V26.2861H21.746V28.4418L21.3434 26.2861H20.8098V29.8747H21.1796V27.2584L21.6992 29.8747ZM19.2884 28.9855C19.2884 29.574 19.5037 29.913 19.9063 29.913C20.3089 29.913 20.5242 29.574 20.5242 28.9855V27.1241C20.5242 26.9002 20.4591 26.6854 20.3432 26.527C20.2273 26.3687 20.0702 26.2797 19.9063 26.2797C19.7424 26.2797 19.5852 26.3687 19.4694 26.527C19.3535 26.6854 19.2884 26.9002 19.2884 27.1241V28.9855ZM19.691 27.1241C19.691 26.8682 19.7846 26.7467 19.9063 26.7467C20.028 26.7467 20.1217 26.8746 20.1217 27.1241V29.0431C20.1217 29.299 20.028 29.4205 19.9063 29.4205C19.7846 29.4205 19.691 29.2926 19.691 29.0431V27.1241ZM18.6705 28.5186V29.0239C18.6705 29.2798 18.6096 29.4013 18.4551 29.4013C18.3007 29.4013 18.2398 29.2734 18.2398 29.0239V27.1049C18.2398 26.849 18.3334 26.7275 18.4551 26.7275C18.5768 26.7275 18.6705 26.8554 18.6705 27.1049V27.4823H19.073V27.1049C19.073 26.994 19.0571 26.8842 19.026 26.7818C18.995 26.6793 18.9495 26.5863 18.8921 26.5078C18.8347 26.4294 18.7666 26.3673 18.6916 26.3248C18.6167 26.2824 18.5363 26.2605 18.4551 26.2605C18.374 26.2605 18.2936 26.2824 18.2187 26.3248C18.1437 26.3673 18.0756 26.4294 18.0182 26.5078C17.9608 26.5863 17.9153 26.6793 17.8843 26.7818C17.8532 26.8842 17.8372 26.994 17.8372 27.1049V28.9663C17.8372 29.5548 18.0526 29.8939 18.4551 29.8939C18.8577 29.8939 19.073 29.5548 19.073 28.9663V28.4994L18.6705 28.5186ZM16.5686 29.8683H16.9993V26.2797H16.6295V28.4354L16.1988 26.2797H15.6605V29.8683H16.0303V27.252L16.5686 29.8683ZM14.7243 26.7979H15.4358V26.2925H14.3217V29.8811H15.4358V29.3565H14.7243V28.3331H15.3094V27.8277H14.7243V26.7979ZM12.8518 26.2925H12.2667V29.8811H12.6365V27.3224L12.9454 29.8811H13.3199L13.6289 27.3224V29.8811H13.9987V26.2925H13.4416L13.1654 28.8512L12.8518 26.2925Z" fill="black"/>
			<path d="M40.2834 11.0556H42.2916L47.2068 24.6997H45.1518L40.2834 11.0556ZM42.2308 24.6165L40.3162 24.6997V12.4436L42.2308 17.5994V24.6165ZM45.2314 11.1835L47.1787 11.0556V23.3052L45.2314 18.1879V11.1835ZM36.8521 11.0556L34.5115 24.6997H32.5969L34.8533 11.0556H36.8521ZM36.5759 15.6612L37.2875 11.0556H37.8118L40.0025 24.6997H38.0879L37.5309 21.8276H35.4618L35.8035 19.7167H37.2547L36.5759 15.6612ZM25.0743 18.2198V24.6805H23.2487V11.0939L25.0743 18.2198ZM28.5384 24.3031H26.9328L23.6887 11.0364H25.491L27.7473 19.8254L30.0036 11.0364H31.7637L28.5384 24.3031ZM32.1569 11.0364V24.6805H30.3968V18.8659L30.364 18.3158L32.1569 11.0364ZM18.2445 24.6805C16.5453 24.6805 15.7073 23.7082 15.7073 21.7252V11.0556H17.6219V21.5333C17.6219 22.1218 17.9637 22.4225 18.6752 22.4225V24.7061L18.2445 24.6805ZM19.1808 22.3969C19.8923 22.3521 20.234 22.0579 20.234 21.5077V11.0556H22.1486V21.7444C22.1486 23.7274 21.3154 24.6997 19.6114 24.6997H19.1808V22.3969ZM9.81846 24.6805H7.87109V11.0556H9.81846V24.6805ZM10.3755 11.0364H11.8267C13.5259 11.0364 14.3638 12.0535 14.3638 14.0364V16.5631C14.3638 18.0855 13.8957 19.0578 12.9595 19.5184L14.7852 24.7125H12.7161L11.1713 19.5184H10.3989V17.4075H11.513C12.1637 17.4075 12.4493 17.1516 12.4493 16.5631V14.2411C12.4493 13.691 12.1403 13.3968 11.513 13.3968H10.3989L10.3755 11.0364ZM0.512329 11.0364H6.94423V13.3648H0.526358L0.512329 11.0364ZM4.80962 24.6805H2.89502V14.094H4.80962V24.6805Z" fill="black"/>
		</symbol>
		<symbol id="brand6">
			<path d="M32.1531 19.8136C31.8952 20.1288 31.5659 20.3134 31.2203 20.3364C30.8378 20.3364 30.4919 20.007 30.4919 19.1978C30.4919 17.3074 32.4308 15.51 33.7095 15.553C33.4317 17.0639 33.2273 18.582 32.1374 19.8065L32.1531 19.8136ZM56.4836 19.9998C55.7722 19.7713 55.1114 19.3125 54.5569 18.662C54.0024 18.0114 53.5705 17.1883 53.2976 16.2619C53.9212 15.5459 54.681 14.9372 55.3937 14.2283C55.7496 13.9047 56.0083 13.4166 56.1221 12.8534C56.3384 12.1102 56.4778 11.3293 56.536 10.5334C56.536 10.1109 56.536 9.81729 56.1902 9.87458C55.8443 9.93186 54.6181 10.9129 54.3194 11.1993C52.7082 12.7309 51.283 14.5988 50.0958 16.7345C50.6512 13.7056 51.2748 9.26593 51.5159 6.99598C51.6945 6.22429 51.6816 5.39359 51.4792 4.63294C51.1103 3.87429 50.6411 3.21621 50.0958 2.6924C49.6137 2.31288 49.3674 2.74253 49.2626 3.35119C48.9534 5.4994 48.7805 6.70955 48.5027 8.50688C48.1558 11.0295 47.6293 13.4998 46.9306 15.8824C46.48 17.4936 45.4057 20.3292 44.1952 20.3292C42.9847 20.3292 43.4668 16.4481 43.4668 15.4098C43.4301 15.0303 43.3987 14.1352 42.7751 13.9777C40.6318 13.3189 40.2807 12.3235 39.8668 12.4667C39.589 12.5169 39.4528 12.8463 39.3427 13.3189C38.8921 15.3024 38.651 17.0568 37.8178 18.7538C37.4353 19.5558 36.7121 20.5512 36.1567 20.5512C35.6012 20.5512 35.4283 19.8351 35.4283 19.1763C35.4824 17.5139 35.6686 15.8644 35.9837 14.2569C36.12 13.4549 35.8108 13.3117 35.5016 13.1685C35.1581 13.0561 34.8068 12.9937 34.4536 12.9823C32.8104 12.9888 31.2197 13.7733 29.9522 15.2021C29.4181 15.8146 28.9411 16.5144 28.5321 17.2859C28.05 18.0879 26.5932 20.501 25.7285 20.501C25.1416 20.501 25.0735 19.606 25.0735 18.94C25.0735 16.1474 26.0429 11.8438 26.7713 9.29456C27.2228 7.94004 27.6165 6.55092 27.9504 5.1342C28.0153 4.7935 28.0212 4.4368 27.9675 4.09246C27.9139 3.74812 27.8021 3.42566 27.6412 3.15069C27.3094 2.53086 26.8841 2.01559 26.394 1.63977C26.2612 1.54661 26.1068 1.52895 25.9645 1.59065C25.8222 1.65235 25.7034 1.78841 25.6342 1.96918C25.2809 2.70201 24.9792 3.47881 24.7329 4.28924C23.3397 8.18495 22.5731 12.4432 22.4848 16.7775C22.4848 19.0474 22.6944 23.2221 24.9425 23.1648C26.1897 23.1648 27.2587 22.1265 28.0866 20.8949C28.2229 22.327 29.0928 23.1648 30.2666 23.1648C30.9049 23.1357 31.5299 22.9077 32.0939 22.4981C32.6579 22.0886 33.1459 21.5084 33.5208 20.8018C33.6315 21.4946 33.9178 22.1117 34.3291 22.5441C34.7405 22.9765 35.2504 23.1963 35.7689 23.1648C38.4362 23.1648 40.024 19.1477 40.7524 16.1187L40.962 16.2619C40.962 16.5913 40.9253 17.114 40.9253 17.5365C40.9253 19.8996 41.3393 23.215 43.624 23.1648C45.5263 23.1648 46.7682 20.7087 47.6748 18.718H47.7114C47.5752 20.0929 47.3656 21.1742 47.2975 22.5991C47.2608 23.215 47.8844 23.1219 48.1621 23.1219C49.5455 23.1219 49.4774 22.6994 49.86 21.0882C50.1548 20.0895 50.6309 19.2097 51.2434 18.5319C51.7045 19.8158 52.3517 20.9583 53.1456 21.8902C53.721 22.622 54.4587 23.0705 55.2417 23.1648C55.5062 23.1848 55.7665 23.0671 55.9701 22.8354C56.4035 22.2781 56.7248 21.5778 56.9029 20.8018C56.9052 20.623 56.8613 20.4488 56.7789 20.31C56.6964 20.1711 56.5807 20.0765 56.4522 20.0428L56.4836 19.9998Z" fill="black"/>
			<path d="M63.647 17.9234C63.7151 19.6706 62.7456 20.9523 61.4303 21.9405C60.1742 22.9012 58.7503 23.3765 57.3115 23.3154C57.0337 23.3154 56.8975 23.0791 56.9289 22.5563C56.9841 22.1262 57.0885 21.7106 57.2381 21.3247C57.3207 21.065 57.4558 20.8428 57.6275 20.6843C57.7992 20.5258 58.0004 20.4374 58.2076 20.4296C58.7124 20.4142 59.2132 20.3033 59.6958 20.1002C60.3508 19.8639 61.0111 19.4844 61.0111 18.7254C61.0111 17.4006 56.8556 18.1596 56.8556 15.6534C56.8556 13.1472 59.9368 11.8726 61.1473 11.3999C61.6126 11.2406 62.0883 11.1446 62.5675 11.1135C62.8452 11.1135 62.9814 11.3498 62.9133 11.6792C62.8085 12.4812 62.5308 13.4264 61.9072 13.6198C61.1547 13.8109 60.4137 14.079 59.6905 14.4218C59.5543 14.5149 59.4495 14.6581 59.4495 14.8013C59.4495 14.9445 59.6224 15.0877 59.8635 15.1808C60.9115 15.5603 63.5317 15.7465 63.6365 17.9234H63.647Z" fill="black"/>
			<path d="M21.84 23.0288C21.4261 23.0288 21.0435 22.9787 20.6295 22.9357C19.278 22.6612 17.9138 22.52 16.5474 22.5132C14.1577 22.5385 11.7731 22.8187 9.41538 23.351C7.812 23.7262 6.19315 23.9654 4.56813 24.0671H4.18559C2.31481 24.0671 0.480721 23.4083 0.412598 20.3292V20.0929C0.480721 16.1689 3.6668 11.3425 6.70092 8.07727C9.1916 5.35052 11.9528 3.12042 14.9019 1.45362C16.2219 0.674558 17.625 0.19099 19.0575 0.0214844C20.1055 0.0214844 19.9221 1.25311 19.1623 3.00032C18.4024 4.74753 18.1142 5.08409 17.1552 5.27027C15.4574 5.55669 12.9997 5.83596 8.33064 10.7052C5.66334 13.4979 3.24234 17.3289 3.31047 19.2981C3.31047 20.5297 4.00218 20.9522 4.83538 20.9522C6.30232 20.8487 7.76054 20.5805 9.19528 20.1502C11.9307 19.4914 15.3893 18.4961 18.2609 18.4961C18.9949 18.4781 19.7275 18.5888 20.4409 18.8255C20.901 19.0292 21.2953 19.4441 21.5571 19.9998C21.8122 20.4817 22.0433 20.9864 22.2488 21.5107C22.385 21.9833 22.558 22.4559 22.4217 22.7424C22.385 22.9285 22.2121 23.0288 21.8348 23.0288H21.84Z" fill="black"/>
		</symbol>
		<symbol id="vk">
			<rect width="42" height="42" rx="21" fill="#0077FF"/>
			<path d="M22.0316 28.35C14.1393 28.35 9.63758 22.832 9.45001 13.65H13.4034C13.5333 20.3894 16.4478 23.244 18.7564 23.8326V13.65H22.4789V19.4623C24.7586 19.2122 27.1538 16.5635 27.9618 13.65H31.6843C31.3798 15.1611 30.7729 16.5918 29.9015 17.8527C29.0301 19.1135 27.9129 20.1775 26.6199 20.978C28.0632 21.7094 29.338 22.7446 30.3602 24.0154C31.3824 25.2861 32.1288 26.7635 32.55 28.35H28.4523C28.0742 26.972 27.3057 25.7385 26.2431 24.804C25.1805 23.8695 23.8711 23.2757 22.4789 23.0969V28.35H22.0316Z" fill="white"/>
		</symbol>
		<symbol id="telegram">
				<rect width="42" height="42" rx="21" fill="#27A6E5"/>
				<path d="M29.4 13.2323L26.2443 29.7069C26.2443 29.7069 25.8028 30.8491 24.5899 30.3013L17.3088 24.5202L17.2751 24.5031C18.2586 23.5886 25.885 16.4878 26.2183 16.1659C26.7343 15.6674 26.414 15.3706 25.8149 15.7472L14.5496 23.1556L10.2035 21.6413C10.2035 21.6413 9.51958 21.3893 9.45378 20.8415C9.38712 20.2928 10.226 19.9961 10.226 19.9961L27.9438 12.7984C27.9438 12.7984 29.4 12.1358 29.4 13.2323Z" fill="#FEFEFE"/>
		</symbol>
</svg>